<svg fill="none" height="30" width="31" xmlns="http://www.w3.org/2000/svg"><rect rx="8" fill-opacity=".08" fill="#fff" x=".5" height="30" width="30"></rect><path clip-rule="evenodd" d="M21.5 15a6 6 0 1 1-12 0 6 6 0 0 1 12 0Zm1.5 0a7.5 7.5 0 1 1-15 0 7.5 7.5 0 0 1 15 0Zm-7.36-3.874c-.654 0-1.33.192-1.853.598-.525.407-.893 1.026-.93 1.867l-.004.073 1.45.105.005-.076c.026-.429.186-.75.42-.966.234-.216.546-.328.881-.328.637 0 1.08.413 1.08.986 0 .446-.268.751-.73 1.161l-.379.336c-.303.267-.526.532-.66.815a1.5 1.5 0 0 0-.12.913l.01.063h1.2v-.075c0-.453.202-.77.634-1.13l.388-.325c.646-.518 1.109-1.073 1.109-1.885 0-.67-.295-1.205-.757-1.572-.46-.365-1.084-.56-1.744-.56Zm-1.062 6.963c0-.472.359-.842.842-.842.463 0 .82.372.82.841a.813.813 0 0 1-.82.831.817.817 0 0 1-.841-.83Z" fill-rule="evenodd" fill-opacity=".6" fill="#fff"></path><rect rx="7.5" stroke-opacity=".04" stroke="#fff" y=".5" x="1" height="29" width="29"></rect></svg>