<svg xmlns="http://www.w3.org/2000/svg" fill="none" viewBox="0 0 31 30" height="30" width="31">
<g clip-path="url(#clip0_4013_126365)">
<path fill-opacity="0.08" fill="white" d="M22.5 0H8.5C4.08172 0 0.5 3.58172 0.5 8V22C0.5 26.4183 4.08172 30 8.5 30H22.5C26.9183 30 30.5 26.4183 30.5 22V8C30.5 3.58172 26.9183 0 22.5 0Z"></path>
<path stroke-opacity="0.04" stroke="white" d="M22.5 0.5H8.5C4.35786 0.5 1 3.85786 1 8V22C1 26.1421 4.35786 29.5 8.5 29.5H22.5C26.6421 29.5 30 26.1421 30 22V8C30 3.85786 26.6421 0.5 22.5 0.5Z"></path>
<path fill-opacity="0.6" fill="white" d="M18.335 8.33331H16.6277L13.6647 21.6666H15.372L18.335 8.33331ZM7.494 14.4107L12.0773 9.82739L13.2558 11.0059L9.26177 15L13.2558 18.9941L12.0773 20.1726L7.494 15.5892L6.90474 15L7.494 14.4107ZM24.5058 14.4107L19.9225 9.82739L18.744 11.0059L22.7381 15L18.744 18.9941L19.9225 20.1726L24.5058 15.5892L25.0951 15L24.5058 14.4107Z" clip-rule="evenodd" fill-rule="evenodd"></path>
</g>
<defs>
<clipPath id="clip0_4013_126365">
<rect fill="white" height="30" width="31"></rect>
</clipPath>
</defs>
</svg>
