<svg xmlns="http://www.w3.org/2000/svg" fill="none" viewBox="0 0 31 30" height="30" width="31">
<g clip-path="url(#clip0_4013_126393)">
<path fill-opacity="0.08" fill="white" d="M22.5 0H8.5C4.08172 0 0.5 3.58172 0.5 8V22C0.5 26.4183 4.08172 30 8.5 30H22.5C26.9183 30 30.5 26.4183 30.5 22V8C30.5 3.58172 26.9183 0 22.5 0Z"></path>
<path stroke-opacity="0.04" stroke="white" d="M22.5 0.5H8.5C4.35786 0.5 1 3.85786 1 8V22C1 26.1421 4.35786 29.5 8.5 29.5H22.5C26.6421 29.5 30 26.1421 30 22V8C30 3.85786 26.6421 0.5 22.5 0.5Z"></path>
<path fill-opacity="0.6" fill="white" d="M22.6667 10.7658L16 8.43249L9.33333 10.7658V10.8334H11H13.2222H13.2223H14.8889H14.889H17.111H17.1112H18.7777H18.7778H20.9999H22.6666H22.6667V10.7658ZM14.889 18.3334V12.5H17.111V18.3334H14.889ZM14.889 20H17.111H17.1112H18.7777H18.7778H20.9999H22.6666V18.3334V12.5H22.6667H24.3333V10.8334V9.58335L16 6.66669L7.66666 9.58335V10.8334V12.5H9.33333V18.3334V20H11H13.2222H13.2223H14.8889H14.889ZM20.9999 18.3334H18.7778V12.5H20.9999V18.3334ZM11 12.5H13.2222V18.3334H11V12.5ZM24.3333 23.3334V21.6667H7.66666V23.3334H24.3333Z" clip-rule="evenodd" fill-rule="evenodd"></path>
</g>
<defs>
<clipPath id="clip0_4013_126393">
<rect fill="white" height="30" width="31"></rect>
</clipPath>
</defs>
</svg>
