<svg xmlns="http://www.w3.org/2000/svg" fill="none" viewBox="0 0 31 30" height="30" width="31">
<g clip-path="url(#clip0_4013_126380)">
<path fill-opacity="0.08" fill="white" d="M22.5 0H8.5C4.08172 0 0.5 3.58172 0.5 8V22C0.5 26.4183 4.08172 30 8.5 30H22.5C26.9183 30 30.5 26.4183 30.5 22V8C30.5 3.58172 26.9183 0 22.5 0Z"></path>
<path stroke-opacity="0.04" stroke="white" d="M22.5 0.5H8.5C4.35786 0.5 1 3.85786 1 8V22C1 26.1421 4.35786 29.5 8.5 29.5H22.5C26.6421 29.5 30 26.1421 30 22V8C30 3.85786 26.6421 0.5 22.5 0.5Z"></path>
<path fill-opacity="0.6" fill="white" d="M16 8.33335H11V20H9.33334V8.33335C9.33334 7.41288 10.0795 6.66669 11 6.66669H16H16.8333L17.6667 7.50002L21.8333 11.6667L22.6667 12.5V13.3334V20H21V13.3334H17.6667C16.7462 13.3334 16 12.5872 16 11.6667V8.33335ZM9.33334 23.3334V21.6667H11H21H22.6667V23.3334H21H11H9.33334ZM19.4763 11.6667L17.6667 9.85704V11.6667H19.4763Z" clip-rule="evenodd" fill-rule="evenodd"></path>
</g>
<defs>
<clipPath id="clip0_4013_126380">
<rect fill="white" height="30" width="31"></rect>
</clipPath>
</defs>
</svg>
