<svg xmlns="http://www.w3.org/2000/svg" width="32" height="32" fill="none" class="w-[28px] h-[28px] rounded-md outline-[3px] min-w-fit outline-white outline -mr-1 z-50"><path fill="#DFD7D5" d="M0 0h32v32H0z"></path><path fill="#E1D7D5" d="M.1 0H0v.1h.1V0Z"></path><path fill="#63A0F9" d="M23 21H9v1h14v-1Zm0 1H9v1h14v-1Zm0 1H9v1h14v-1Zm0 1H9v1h14v-1Zm-12 1H9v1h2v-1Zm12 0H12v1h11v-1Zm-12 1H9v1h2v-1Zm12 0H12v1h11v-1Zm-12 1H9v1h2v-1Zm12 0H12v1h11v-1Zm-12 1H9v1h2v-1Zm12 0H12v1h11v-1Zm-12 1H9v1h2v-1Zm12 0H12v1h11v-1Zm-12 1H9v1h2v-1Zm12 0H12v1h11v-1Zm-12 1H9v1h2v-1Zm12 0H12v1h11v-1Z"></path><path fill="#000" d="M14 24h-2v1h2v-1Zm3 0h-1v1h1v-1Zm3 0h-1v1h1v-1Zm-7 1h-1v1h1v-1Zm3 0h-2v1h2v-1Zm3 0h-2v1h2v-1Zm2 0h-1v1h1v-1Zm-8 1h-1v1h1v-1Zm6 0h-5v1h5v-1Zm2 0h-1v1h1v-1Zm-7 1h-2v1h2v-1Zm2 0h-1v1h1v-1Zm2 0h-1v1h1v-1Zm2 0h-1v1h1v-1Z"></path><path fill="#26B1F3" d="M14 3h-1v1h1V3Z"></path><path fill="#FA6FE2" d="M19 3h-5v1h5V3Zm-6 1h-2v1h2V4Z"></path><path fill="#26B1F3" d="M14 4h-1v1h1V4Z"></path><path fill="#FA6FE2" d="M18 4h-4v1h4V4Z"></path><path fill="#FEE3F3" d="M19 4h-1v1h1V4Z"></path><path fill="#FA6FE2" d="M21 4h-2v1h2V4Zm-2 1H9v1h10V5Z"></path><path fill="#FEE3F3" d="M20 5h-1v1h1V5Z"></path><path fill="#FA6FE2" d="M23 5h-3v1h3V5Zm-7 1H8v1h8V6Z"></path><path fill="#FFE939" d="M17 6h-1v1h1V6Z"></path><path fill="#FA6FE2" d="M22 6h-5v1h5V6Z"></path><path fill="#E9265C" d="M24 6h-2v1h2V6Z"></path><path fill="#FA6FE2" d="M10 7H8v1h2V7Z"></path><path fill="#FEE3F3" d="M12 7h-2v1h2V7Z"></path><path fill="#FA6FE2" d="M13 7h-1v1h1V7Z"></path><path fill="#E9265C" d="M14 7h-1v1h1V7Z"></path><path fill="#FA6FE2" d="M17 7h-3v1h3V7Z"></path><path fill="#FFE939" d="M18 7h-1v1h1V7Z"></path><path fill="#FA6FE2" d="M24 7h-6v1h6V7ZM14 8H7v1h7V8Z"></path><path fill="#E9265C" d="M15 8h-1v1h1V8Z"></path><path fill="#FA6FE2" d="M16 8h-1v1h1V8Z"></path><path fill="#F38B7C" d="M17 8h-1v1h1V8Z"></path><path fill="#FA6FE2" d="M22 8h-5v1h5V8Z"></path><path fill="#26B1F3" d="M23 8h-1v1h1V8Z"></path><path fill="#FA6FE2" d="M25 8h-2v1h2V8ZM14 9H7v1h7V9Z"></path><path fill="#F38B7C" d="M19 9h-5v1h5V9Z"></path><path fill="#FA6FE2" d="M21 9h-2v1h2V9Z"></path><path fill="#26B1F3" d="M22 9h-1v1h1V9Z"></path><path fill="#FA6FE2" d="M25 9h-3v1h3V9Zm-15 1H6v1h4v-1Z"></path><path fill="#FFE939" d="M11 10h-1v1h1v-1Z"></path><path fill="#FA6FE2" d="M13 10h-2v1h2v-1Z"></path><path fill="#F38B7C" d="M14 10h-1v1h1v-1Zm5 0h-1v1h1v-1Z"></path><path fill="#FA6FE2" d="M25 10h-6v1h6v-1Z"></path><path fill="#4BEA69" d="M26 10h-1v1h1v-1Z"></path><path fill="#FA6FE2" d="M7 11H6v1h1v-1Z"></path><path fill="#4BEA69" d="M9 11H7v1h2v-1Z"></path><path fill="#FA6FE2" d="M10 11H9v1h1v-1Z"></path><path fill="#FFE939" d="M11 11h-1v1h1v-1Z"></path><path fill="#FA6FE2" d="M12 11h-1v1h1v-1Z"></path><path fill="#F38B7C" d="M13 11h-1v1h1v-1Zm7 0h-1v1h1v-1Z"></path><path fill="#FFE939" d="M22 11h-2v1h2v-1Z"></path><path fill="#FA6FE2" d="M25 11h-3v1h3v-1Z"></path><path fill="#4BEA69" d="M26 11h-1v1h1v-1Z"></path><path fill="#FA6FE2" d="M12 12H6v1h6v-1Z"></path><path fill="#F38B7C" d="M13 12h-1v1h1v-1Zm7 0h-1v1h1v-1Z"></path><path fill="#FA6FE2" d="M26 12h-6v1h6v-1Zm-14 1H6v1h6v-1Z"></path><path fill="#F38B7C" d="M13 13h-1v1h1v-1Zm7 0h-1v1h1v-1Z"></path><path fill="#FA6FE2" d="M26 13h-6v1h6v-1ZM8 14H6v1h2v-1Z"></path><path fill="#26B1F3" d="M9 14H8v1h1v-1Z"></path><path fill="#FA6FE2" d="M12 14H9v1h3v-1Z"></path><path fill="#F38B7C" d="M13 14h-1v1h1v-1Zm7 0h-1v1h1v-1Z"></path><path fill="#FA6FE2" d="M23 14h-3v1h3v-1Z"></path><path fill="#FEE3F3" d="M25 14h-2v1h2v-1Z"></path><path fill="#FA6FE2" d="M26 14h-1v1h1v-1ZM8 15H6v1h2v-1Z"></path><path fill="#26B1F3" d="M9 15H8v1h1v-1Z"></path><path fill="#FA6FE2" d="M12 15H9v1h3v-1Z"></path><path fill="#F38B7C" d="M14 15h-2v1h2v-1Zm5 0h-1v1h1v-1Z"></path><path fill="#FA6FE2" d="M21 15h-2v1h2v-1Z"></path><path fill="#26B1F3" d="M22 15h-1v1h1v-1Z"></path><path fill="#FA6FE2" d="M26 15h-4v1h4v-1Zm-12 1H7v1h7v-1Z"></path><path fill="#F38B7C" d="M19 16h-5v1h5v-1Z"></path><path fill="#FA6FE2" d="M22 16h-3v1h3v-1Z"></path><path fill="#26B1F3" d="M23 16h-1v1h1v-1Z"></path><path fill="#FA6FE2" d="M25 16h-2v1h2v-1Zm-14 1H7v1h4v-1Z"></path><path fill="#FEE3F3" d="M12 17h-1v1h1v-1Z"></path><path fill="#FA6FE2" d="M18 17h-6v1h6v-1Z"></path><path fill="#E9265C" d="M20 17h-2v1h2v-1Z"></path><path fill="#FA6FE2" d="M25 17h-5v1h5v-1Zm-15 1H8v1h2v-1Z"></path><path fill="#FEE3F3" d="M11 18h-1v1h1v-1Z"></path><path fill="#FA6FE2" d="M15 18h-4v1h4v-1Z"></path><path fill="#26B1F3" d="M16 18h-1v1h1v-1Z"></path><path fill="#FA6FE2" d="M24 18h-8v1h8v-1Zm-9 1H8v1h7v-1Z"></path><path fill="#26B1F3" d="M16 19h-1v1h1v-1Z"></path><path fill="#1F1D29" d="M20 19h-4v1h4v-1Z"></path><path fill="#FFE939" d="M21 19h-1v1h1v-1Z"></path><path fill="#FA6FE2" d="M24 19h-3v1h3v-1Zm-13 1H9v1h2v-1Z"></path><path fill="#E9265C" d="M12 20h-1v1h1v-1Z"></path><path fill="#FA6FE2" d="M21 20h-9v1h9v-1Z"></path><path fill="#FFE939" d="M22 20h-1v1h1v-1Z"></path><path fill="#FA6FE2" d="M23 20h-1v1h1v-1Z"></path><path fill="#E9265C" d="M12 21h-1v1h1v-1Z"></path><path fill="#FA6FE2" d="M21 21h-9v1h9v-1Zm-7 1h-1v1h1v-1Z"></path><path fill="#4BEA69" d="M16 22h-2v1h2v-1Z"></path><path fill="#FA6FE2" d="M19 22h-3v1h3v-1Z"></path><path fill="#FF638D" d="M16 11h-6v1h6v-1Zm7 0h-6v1h6v-1Zm-12 1h-1v1h1v-1Z"></path><path fill="#fff" d="M13 12h-2v1h2v-1Z"></path><path fill="#000" d="M15 12h-2v1h2v-1Z"></path><path fill="#FF638D" d="M16 12h-1v1h1v-1Zm2 0h-1v1h1v-1Z"></path><path fill="#fff" d="M20 12h-2v1h2v-1Z"></path><path fill="#000" d="M22 12h-2v1h2v-1Z"></path><path fill="#FF638D" d="M23 12h-1v1h1v-1Zm-12 1H7v1h4v-1Z"></path><path fill="#fff" d="M13 13h-2v1h2v-1Z"></path><path fill="#000" d="M15 13h-2v1h2v-1Z"></path><path fill="#FF638D" d="M18 13h-3v1h3v-1Z"></path><path fill="#fff" d="M20 13h-2v1h2v-1Z"></path><path fill="#000" d="M22 13h-2v1h2v-1Z"></path><path fill="#FF638D" d="M23 13h-1v1h1v-1Zm-12 1H7v1h4v-1Z"></path><path fill="#fff" d="M13 14h-2v1h2v-1Z"></path><path fill="#000" d="M15 14h-2v1h2v-1Z"></path><path fill="#FF638D" d="M18 14h-3v1h3v-1Z"></path><path fill="#fff" d="M20 14h-2v1h2v-1Z"></path><path fill="#000" d="M22 14h-2v1h2v-1Z"></path><path fill="#FF638D" d="M23 14h-1v1h1v-1ZM8 15H7v1h1v-1Zm3 0h-1v1h1v-1Z"></path><path fill="#fff" d="M13 15h-2v1h2v-1Z"></path><path fill="#000" d="M15 15h-2v1h2v-1Z"></path><path fill="#FF638D" d="M16 15h-1v1h1v-1Zm2 0h-1v1h1v-1Z"></path><path fill="#fff" d="M20 15h-2v1h2v-1Z"></path><path fill="#000" d="M22 15h-2v1h2v-1Z"></path><path fill="#FF638D" d="M23 15h-1v1h1v-1Zm-7 1h-6v1h6v-1Zm7 0h-6v1h6v-1Z"></path></svg>