<svg xmlns="http://www.w3.org/2000/svg" width="32" height="32" fill="none" class="w-[28px] h-[28px] rounded-md outline-[3px] min-w-fit outline-white outline -mr-1 z-50"><path fill="#DFD7D5" d="M0 0h32v32H0z"></path><path fill="#E1D7D5" d="M.1 0H0v.1h.1V0Z"></path><path fill="#4B4949" d="M23 21H9v1h14v-1Zm0 1H9v1h14v-1Zm0 1H9v1h14v-1Zm0 1H9v1h14v-1Zm-12 1H9v1h2v-1Zm12 0H12v1h11v-1Zm-12 1H9v1h2v-1Zm12 0H12v1h11v-1Zm-12 1H9v1h2v-1Zm12 0H12v1h11v-1Zm-12 1H9v1h2v-1Zm12 0H12v1h11v-1Zm-12 1H9v1h2v-1Zm12 0H12v1h11v-1Zm-12 1H9v1h2v-1Zm12 0H12v1h11v-1Zm-12 1H9v1h2v-1Zm12 0H12v1h11v-1Z"></path><path fill="#fff" d="M14 23h-1v1h1v-1Zm4 0h-2v1h2v-1Zm2 0h-1v1h1v-1Zm-6 1h-1v1h1v-1Zm4 0h-2v1h2v-1Zm2 0h-1v1h1v-1Zm-5 1h-2v1h2v-1Zm3 0h-2v1h2v-1Zm3 0h-2v1h2v-1Z"></path><path fill="#000" d="M11 5H7v1h4V5Zm13 0h-4v1h4V5ZM12 6H6v1h6V6Zm13 0h-6v1h6V6ZM12 7H6v1h6V7Z"></path><path fill="#fff" d="M21 7h-9v1h9V7Z"></path><path fill="#000" d="M25 7h-4v1h4V7ZM11 8H6v1h5V8Z"></path><path fill="#fff" d="M22 8H11v1h11V8Z"></path><path fill="#000" d="M25 8h-3v1h3V8ZM10 9H6v1h4V9Z"></path><path fill="#fff" d="M23 9H10v1h13V9Z"></path><path fill="#000" d="M25 9h-2v1h2V9ZM9 10H7v1h2v-1Z"></path><path fill="#fff" d="M23 10H9v1h14v-1Z"></path><path fill="#000" d="M24 10h-1v1h1v-1Z"></path><path fill="#fff" d="M24 11H8v1h16v-1Zm0 1H8v1h16v-1Zm0 1H8v1h16v-1Zm0 1H8v1h16v-1Zm0 1H8v1h16v-1Zm0 1H8v1h16v-1Zm-6 1H8v1h10v-1Z"></path><path fill="#000" d="M22 17h-4v1h4v-1Z"></path><path fill="#fff" d="M24 17h-2v1h2v-1Zm-6 1H8v1h10v-1Z"></path><path fill="#000" d="M22 18h-4v1h4v-1Z"></path><path fill="#fff" d="M24 18h-2v1h2v-1Zm-9 1H8v1h7v-1Z"></path><path fill="#000" d="M21 19h-6v1h6v-1Z"></path><path fill="#fff" d="M24 19h-3v1h3v-1Zm0 1H8v1h16v-1Z"></path><path fill="#000" d="M16 11h-6v1h6v-1Zm7 0h-6v1h6v-1Zm-10 1h-3v1h3v-1Z"></path><path fill="#FF0E0E" d="M14 12h-1v1h1v-1Z"></path><path fill="#000" d="M16 12h-2v1h2v-1Zm4 0h-3v1h3v-1Z"></path><path fill="#FF0E0E" d="M21 12h-1v1h1v-1Z"></path><path fill="#000" d="M23 12h-2v1h2v-1Zm0 1H7v1h16v-1ZM8 14H7v1h1v-1Zm3 0h-1v1h1v-1Z"></path><path fill="#0ADC4D" d="M12 14h-1v1h1v-1Z"></path><path fill="#000" d="M14 14h-2v1h2v-1Z"></path><path fill="#1929F4" d="M15 14h-1v1h1v-1Z"></path><path fill="#000" d="M16 14h-1v1h1v-1Zm2 0h-1v1h1v-1Z"></path><path fill="#0ADC4D" d="M19 14h-1v1h1v-1Z"></path><path fill="#000" d="M21 14h-2v1h2v-1Z"></path><path fill="#1929F4" d="M22 14h-1v1h1v-1Z"></path><path fill="#000" d="M23 14h-1v1h1v-1ZM8 15H7v1h1v-1Zm8 0h-6v1h6v-1Zm7 0h-6v1h6v-1Zm-7 1h-6v1h6v-1Zm7 0h-6v1h6v-1Z"></path></svg>