<svg xmlns="http://www.w3.org/2000/svg" width="32" height="32" fill="none" class="w-[28px] h-[28px] rounded-md outline-[3px] min-w-fit outline-white outline -mr-1 z-50"><g clip-path="url(#pixelated-pic-5_svg__a)"><path fill="#DFD7D5" d="M0 0h32v32H0z"></path><path fill="#D8D1CF" d="M0 28h6v6H0z"></path><path fill="#77CC84" d="M6 28h6v6H6z"></path><path fill="#52CC69" d="M12 28h6v6h-6z"></path><path fill="#6AC579" d="M18 28h6v6h-6z"></path><path fill="#C2B4B6" d="M24 28h6v6h-6z"></path><path fill="#A5A09E" d="M30 28h6v6h-6z"></path><path fill="#D9D9D9" d="M0 22h6v6H0z"></path><path fill="#80E490" d="M6 22h6v6H6z"></path><path fill="#59B26A" d="M12 22h6v6h-6z"></path><path fill="#5CE577" d="M18 22h6v6h-6z"></path><path fill="#DBD8D3" d="M24 22h6v6h-6z"></path><path fill="#D9D9D9" d="M30 22h6v6h-6z"></path><path fill="#D7CECD" d="M0 16h6v6H0z"></path><path fill="#96D5A6" d="M6 16h6v6H6z"></path><path fill="#37C464" d="M12 16h6v6h-6z"></path><path fill="#2C9C66" d="M18 16h6v6h-6z"></path><path fill="#67D280" d="M24 16h6v6h-6z"></path><path fill="#B7C4B8" d="M30 16h6v6h-6z"></path><path fill="#DCD4D2" d="M0 10h6v6H0z"></path><path fill="#6EC497" d="M6 10h6v6H6z"></path><path fill="#2E8A57" d="M12 10h6v6h-6z"></path><path fill="#498A69" d="M18 10h6v6h-6z"></path><path fill="#CBD8C7" d="M24 10h6v6h-6z"></path><path fill="#C9BEBB" d="M30 10h6v6h-6z"></path><path fill="#D9D9D9" d="M0 4h6v6H0z"></path><path fill="#91D1A6" d="M6 4h6v6H6z"></path><path fill="#71BD9E" d="M12 4h6v6h-6z"></path><path fill="#B4D6BA" d="M18 4h6v6h-6z"></path><path fill="#CFD3CD" d="M24 4h6v6h-6z"></path><path fill="#CDC7C7" d="M30 4h6v6h-6z"></path><path fill="#B8B2B0" d="M0-2h6v6H0z"></path><path fill="#C0C5BF" d="M6-2h6v6H6z"></path><path fill="#BDB8B6" d="M12-2h6v6h-6z"></path><path fill="#BFC1B9" d="M18-2h6v6h-6z"></path><path fill="#D9D9D9" d="M24-2h6v6h-6z"></path><path fill="#ACA6A4" d="M30-2h6v6h-6z"></path></g><defs><clipPath id="pixelated-pic-5_svg__a"><path fill="#fff" d="M0 0h32v32H0z"></path></clipPath></defs></svg>