<svg xmlns="http://www.w3.org/2000/svg" width="32" height="32" fill="none" class="w-[28px] h-[28px] rounded-md outline-[3px] min-w-fit outline-white outline -mr-1 z-50"><g clip-path="url(#pixelated-pic-4_svg__a)"><path fill="#D5D7E0" d="M0 0h32v32H0z"></path><path fill="#D2D4DD" d="M0 28h6v6H0z"></path><path fill="#8F9DB3" d="M6 28h6v6H6z"></path><path fill="#536E7E" d="M12 28h6v6h-6z"></path><path fill="#4D7169" d="M18 28h6v6h-6z"></path><path fill="#C9CBD4" d="M24 28h6v6h-6z"></path><path fill="#D5D7E0" d="M30 28h6v6h-6z"></path><path fill="#D9D9D9" d="M0 22h6v6H0z"></path><path fill="#8AA0A1" d="M6 22h6v6H6z"></path><path fill="#68645B" d="M12 22h6v6h-6z"></path><path fill="#6A8A5C" d="M18 22h6v6h-6z"></path><path fill="#D9D9E1" d="M24 22h6v6h-6z"></path><path fill="#D9D9D9" d="M30 22h6v6h-6z"></path><path fill="#D1D1DA" d="M0 16h6v6H0z"></path><path fill="#D0888A" d="M6 16h6v6H6z"></path><path fill="#C94550" d="M12 16h6v6h-6z"></path><path fill="#C13A3B" d="M18 16h6v6h-6z"></path><path fill="#DDD6D9" d="M24 16h6v6h-6z"></path><path fill="#DEDBDE" d="M30 16h6v6h-6z"></path><path fill="#DCDAE0" d="M0 10h6v6H0z"></path><path fill="#965351" d="M6 10h6v6H6z"></path><path fill="#553023" d="M12 10h6v6h-6z"></path><path fill="#776654" d="M18 10h6v6h-6z"></path><path fill="#DFDBE0" d="M24 10h6v6h-6z"></path><path fill="#C0C2C8" d="M30 10h6v6h-6z"></path><path fill="#D9D9D9" d="M0 4h6v6H0z"></path><path fill="#E5BF97" d="M6 4h6v6H6z"></path><path fill="#F9BC2B" d="M12 4h6v6h-6z"></path><path fill="#F4BF42" d="M18 4h6v6h-6z"></path><path fill="#C7C8DD" d="M24 4h6v6h-6z"></path><path fill="#C4C6CE" d="M30 4h6v6h-6z"></path><path fill="#D1D3DC" d="M0-2h6v6H0z"></path><path fill="#B5B7BE" d="M6-2h6v6H6z"></path><path fill="#CAC9C9" d="M12-2h6v6h-6z"></path><path fill="#BEC0C7" d="M18-2h6v6h-6z"></path><path fill="#D9D9D9" d="M24-2h6v6h-6z"></path><path fill="#CDCFD8" d="M30-2h6v6h-6z"></path></g><defs><clipPath id="pixelated-pic-4_svg__a"><path fill="#fff" d="M0 0h32v32H0z"></path></clipPath></defs></svg>