<svg xmlns="http://www.w3.org/2000/svg" width="32" height="32" fill="none" class="w-[28px] h-[28px] rounded-md outline-[3px] min-w-fit outline-white outline -mr-1 z-50"><path fill="#D5D7E0" d="M0 0h32v32H0z"></path><path fill="#D5D7E1" d="M.1 0H0v.1h.1V0Z"></path><path fill="#D26451" d="M23 21H9v1h14v-1Zm0 1H9v1h14v-1Zm0 1H9v1h14v-1Zm0 1H9v1h14v-1Zm-12 1H9v1h2v-1Zm12 0H12v1h11v-1Zm-12 1H9v1h2v-1Zm12 0H12v1h11v-1Zm-12 1H9v1h2v-1Zm12 0H12v1h11v-1Zm-12 1H9v1h2v-1Zm12 0H12v1h11v-1Zm-12 1H9v1h2v-1Zm12 0H12v1h11v-1Zm-12 1H9v1h2v-1Zm12 0H12v1h11v-1Zm-12 1H9v1h2v-1Zm12 0H12v1h11v-1Z"></path><path fill="#667AF9" d="M23 21H9v1h14v-1Zm-13 1H9v1h1v-1Z"></path><path fill="#648DF9" d="M11 22h-1v1h1v-1Z"></path><path fill="#667AF9" d="M12 22h-1v1h1v-1Z"></path><path fill="#648DF9" d="M13 22h-1v1h1v-1Z"></path><path fill="#667AF9" d="M14 22h-1v1h1v-1Z"></path><path fill="#648DF9" d="M15 22h-1v1h1v-1Z"></path><path fill="#667AF9" d="M16 22h-1v1h1v-1Z"></path><path fill="#648DF9" d="M17 22h-1v1h1v-1Z"></path><path fill="#667AF9" d="M18 22h-1v1h1v-1Z"></path><path fill="#648DF9" d="M19 22h-1v1h1v-1Z"></path><path fill="#667AF9" d="M20 22h-1v1h1v-1Z"></path><path fill="#648DF9" d="M21 22h-1v1h1v-1Z"></path><path fill="#667AF9" d="M22 22h-1v1h1v-1Z"></path><path fill="#648DF9" d="M23 22h-1v1h1v-1Zm0 1H9v1h14v-1Zm-13 1H9v1h1v-1Z"></path><path fill="#63A0F9" d="M11 24h-1v1h1v-1Z"></path><path fill="#648DF9" d="M12 24h-1v1h1v-1Z"></path><path fill="#63A0F9" d="M13 24h-1v1h1v-1Z"></path><path fill="#648DF9" d="M14 24h-1v1h1v-1Z"></path><path fill="#63A0F9" d="M15 24h-1v1h1v-1Z"></path><path fill="#648DF9" d="M16 24h-1v1h1v-1Z"></path><path fill="#63A0F9" d="M17 24h-1v1h1v-1Z"></path><path fill="#648DF9" d="M18 24h-1v1h1v-1Z"></path><path fill="#63A0F9" d="M19 24h-1v1h1v-1Z"></path><path fill="#648DF9" d="M20 24h-1v1h1v-1Z"></path><path fill="#63A0F9" d="M21 24h-1v1h1v-1Z"></path><path fill="#648DF9" d="M22 24h-1v1h1v-1Z"></path><path fill="#63A0F9" d="M23 24h-1v1h1v-1Zm-12 1H9v1h2v-1Zm12 0H12v1h11v-1Zm-12 1H9v1h2v-1Zm12 0H12v1h11v-1Zm-12 1H9v1h2v-1Zm12 0H12v1h11v-1Zm-13 1H9v1h1v-1Z"></path><path fill="#7CC4F2" d="M11 28h-1v1h1v-1Zm2 0h-1v1h1v-1Z"></path><path fill="#63A0F9" d="M14 28h-1v1h1v-1Z"></path><path fill="#7CC4F2" d="M15 28h-1v1h1v-1Z"></path><path fill="#63A0F9" d="M16 28h-1v1h1v-1Z"></path><path fill="#7CC4F2" d="M17 28h-1v1h1v-1Z"></path><path fill="#63A0F9" d="M18 28h-1v1h1v-1Z"></path><path fill="#7CC4F2" d="M19 28h-1v1h1v-1Z"></path><path fill="#63A0F9" d="M20 28h-1v1h1v-1Z"></path><path fill="#7CC4F2" d="M21 28h-1v1h1v-1Z"></path><path fill="#63A0F9" d="M22 28h-1v1h1v-1Z"></path><path fill="#7CC4F2" d="M23 28h-1v1h1v-1Zm-12 1H9v1h2v-1Zm12 0H12v1h11v-1Zm-13 1H9v1h1v-1Z"></path><path fill="#97F2FB" d="M11 30h-1v1h1v-1Zm2 0h-1v1h1v-1Z"></path><path fill="#7CC4F2" d="M14 30h-1v1h1v-1Z"></path><path fill="#97F2FB" d="M15 30h-1v1h1v-1Z"></path><path fill="#7CC4F2" d="M16 30h-1v1h1v-1Z"></path><path fill="#97F2FB" d="M17 30h-1v1h1v-1Z"></path><path fill="#7CC4F2" d="M18 30h-1v1h1v-1Z"></path><path fill="#97F2FB" d="M19 30h-1v1h1v-1Z"></path><path fill="#7CC4F2" d="M20 30h-1v1h1v-1Z"></path><path fill="#97F2FB" d="M21 30h-1v1h1v-1Z"></path><path fill="#7CC4F2" d="M22 30h-1v1h1v-1Z"></path><path fill="#97F2FB" d="M23 30h-1v1h1v-1Zm-12 1H9v1h2v-1Zm12 0H12v1h11v-1Z"></path><path fill="#FF82AD" d="M20 5h-8v1h8V5Zm-8 1H9v1h3V6Z"></path><path fill="#FF638D" d="M15 6h-3v1h3V6Z"></path><path fill="#FF82AD" d="M16 6h-1v1h1V6Z"></path><path fill="#FF638D" d="M20 6h-4v1h4V6Z"></path><path fill="#FF82AD" d="M23 6h-3v1h3V6ZM9 7H8v1h1V7Z"></path><path fill="#FF638D" d="M12 7H9v1h3V7Z"></path><path fill="#FF82AD" d="M15 7h-3v1h3V7Z"></path><path fill="#FF638D" d="M16 7h-1v1h1V7Z"></path><path fill="#FF82AD" d="M20 7h-4v1h4V7Z"></path><path fill="#FF638D" d="M23 7h-3v1h3V7Z"></path><path fill="#FF82AD" d="M24 7h-1v1h1V7ZM8 8H7v1h1V8Z"></path><path fill="#FF638D" d="M9 8H8v1h1V8Z"></path><path fill="#FF82AD" d="M11 8H9v1h2V8Z"></path><path fill="#FF638D" d="M12 8h-1v1h1V8Z"></path><path fill="#FF82AD" d="M13 8h-1v1h1V8Z"></path><path fill="#FF638D" d="M14 8h-1v1h1V8Z"></path><path fill="#FF82AD" d="M15 8h-1v1h1V8Z"></path><path fill="#FF638D" d="M16 8h-1v1h1V8Z"></path><path fill="#FF82AD" d="M17 8h-1v1h1V8Z"></path><path fill="#FF638D" d="M18 8h-1v1h1V8Z"></path><path fill="#FF82AD" d="M20 8h-2v1h2V8Z"></path><path fill="#FF638D" d="M21 8h-1v1h1V8Z"></path><path fill="#FF82AD" d="M23 8h-2v1h2V8Z"></path><path fill="#FF638D" d="M24 8h-1v1h1V8Z"></path><path fill="#FF82AD" d="M25 8h-1v1h1V8ZM8 9H7v1h1V9Z"></path><path fill="#FF638D" d="M9 9H8v1h1V9Z"></path><path fill="#FF82AD" d="M10 9H9v1h1V9Z"></path><path fill="#FF638D" d="M11 9h-1v1h1V9Z"></path><path fill="#FF82AD" d="M13 9h-2v1h2V9Z"></path><path fill="#FF638D" d="M14 9h-1v1h1V9Z"></path><path fill="#FF82AD" d="M16 9h-2v1h2V9Z"></path><path fill="#FF638D" d="M17 9h-1v1h1V9Z"></path><path fill="#FF82AD" d="M19 9h-2v1h2V9Z"></path><path fill="#FF638D" d="M20 9h-1v1h1V9Z"></path><path fill="#FF82AD" d="M25 9h-5v1h5V9Zm-13 1H6v1h6v-1Z"></path><path fill="#FF638D" d="M13 10h-1v1h1v-1Z"></path><path fill="#FF82AD" d="M16 10h-3v1h3v-1Z"></path><path fill="#FF638D" d="M17 10h-1v1h1v-1Z"></path><path fill="#FF82AD" d="M19 10h-2v1h2v-1Z"></path><path fill="#FF638D" d="M20 10h-1v1h1v-1Z"></path><path fill="#FF82AD" d="M22 10h-2v1h2v-1Z"></path><path fill="#FF638D" d="M23 10h-1v1h1v-1Z"></path><path fill="#FF82AD" d="M24 10h-1v1h1v-1Z"></path><path fill="#FF638D" d="M25 10h-1v1h1v-1Z"></path><path fill="#FF82AD" d="M26 10h-1v1h1v-1ZM7 11H6v1h1v-1Z"></path><path fill="#FF638D" d="M8 11H7v1h1v-1Z"></path><path fill="#FF82AD" d="M12 11H8v1h4v-1Z"></path><path fill="#FF638D" d="M13 11h-1v1h1v-1Z"></path><path fill="#FF82AD" d="M19 11h-6v1h6v-1Z"></path><path fill="#FF638D" d="M20 11h-1v1h1v-1Z"></path><path fill="#FF82AD" d="M24 11h-4v1h4v-1Z"></path><path fill="#FF638D" d="M25 11h-1v1h1v-1Z"></path><path fill="#FF82AD" d="M26 11h-1v1h1v-1ZM7 12H6v1h1v-1Z"></path><path fill="#FF638D" d="M8 12H7v1h1v-1Z"></path><path fill="#FF82AD" d="M10 12H8v1h2v-1Z"></path><path fill="#FF638D" d="M11 12h-1v1h1v-1Z"></path><path fill="#FF82AD" d="M13 12h-2v1h2v-1Z"></path><path fill="#FF638D" d="M14 12h-1v1h1v-1Z"></path><path fill="#FF82AD" d="M17 12h-3v1h3v-1Z"></path><path fill="#FF638D" d="M18 12h-1v1h1v-1Z"></path><path fill="#FF82AD" d="M24 12h-6v1h6v-1Z"></path><path fill="#FF638D" d="M25 12h-1v1h1v-1Z"></path><path fill="#FF82AD" d="M26 12h-1v1h1v-1Zm-16 1H6v1h4v-1Z"></path><path fill="#FF638D" d="M11 13h-1v1h1v-1Z"></path><path fill="#FF82AD" d="M13 13h-2v1h2v-1Z"></path><path fill="#FF638D" d="M14 13h-1v1h1v-1Z"></path><path fill="#FF82AD" d="M18 13h-4v1h4v-1Z"></path><path fill="#FF638D" d="M19 13h-1v1h1v-1Z"></path><path fill="#FF82AD" d="M20 13h-1v1h1v-1Z"></path><path fill="#FF638D" d="M22 13h-2v1h2v-1Z"></path><path fill="#FF82AD" d="M24 13h-2v1h2v-1Z"></path><path fill="#FF638D" d="M25 13h-1v1h1v-1Z"></path><path fill="#FF82AD" d="M26 13h-1v1h1v-1ZM7 14H6v1h1v-1Z"></path><path fill="#FF638D" d="M8 14H7v1h1v-1Z"></path><path fill="#FF82AD" d="M10 14H8v1h2v-1Z"></path><path fill="#FF638D" d="M11 14h-1v1h1v-1Z"></path><path fill="#FF82AD" d="M14 14h-3v1h3v-1Z"></path><path fill="#FF638D" d="M15 14h-1v1h1v-1Z"></path><path fill="#FF82AD" d="M24 14h-9v1h9v-1Z"></path><path fill="#FF638D" d="M25 14h-1v1h1v-1Z"></path><path fill="#FF82AD" d="M26 14h-1v1h1v-1ZM7 15H6v1h1v-1Z"></path><path fill="#FF638D" d="M8 15H7v1h1v-1Z"></path><path fill="#FF82AD" d="M11 15H8v1h3v-1Z"></path><path fill="#FF638D" d="M12 15h-1v1h1v-1Z"></path><path fill="#FF82AD" d="M17 15h-5v1h5v-1Z"></path><path fill="#FF638D" d="M18 15h-1v1h1v-1Z"></path><path fill="#FF82AD" d="M24 15h-6v1h6v-1Z"></path><path fill="#FF638D" d="M25 15h-1v1h1v-1Z"></path><path fill="#FF82AD" d="M26 15h-1v1h1v-1Zm-14 1H6v1h6v-1Z"></path><path fill="#FF638D" d="M13 16h-1v1h1v-1Z"></path><path fill="#FF82AD" d="M18 16h-5v1h5v-1Z"></path><path fill="#FF638D" d="M20 16h-2v1h2v-1Z"></path><path fill="#FF82AD" d="M24 16h-4v1h4v-1Z"></path><path fill="#FF638D" d="M25 16h-1v1h1v-1Z"></path><path fill="#FF82AD" d="M26 16h-1v1h1v-1Zm-1 1H7v1h18v-1ZM8 18H7v1h1v-1Z"></path><path fill="#FF638D" d="M9 18H8v1h1v-1Z"></path><path fill="#FF82AD" d="M12 18H9v1h3v-1Z"></path><path fill="#FF638D" d="M14 18h-2v1h2v-1Z"></path><path fill="#FF82AD" d="M16 18h-2v1h2v-1Z"></path><path fill="#FF638D" d="M17 18h-1v1h1v-1Z"></path><path fill="#FF82AD" d="M22 18h-5v1h5v-1Z"></path><path fill="#FF638D" d="M24 18h-2v1h2v-1Z"></path><path fill="#FF82AD" d="M25 18h-1v1h1v-1ZM9 19H8v1h1v-1Z"></path><path fill="#FF638D" d="M10 19H9v1h1v-1Z"></path><path fill="#FF82AD" d="M11 19h-1v1h1v-1Z"></path><path fill="#FF638D" d="M12 19h-1v1h1v-1Z"></path><path fill="#FF82AD" d="M14 19h-2v1h2v-1Z"></path><path fill="#FF638D" d="M16 19h-2v1h2v-1Z"></path><path fill="#FF82AD" d="M20 19h-4v1h4v-1Z"></path><path fill="#FF638D" d="M22 19h-2v1h2v-1Z"></path><path fill="#FF82AD" d="M24 19h-2v1h2v-1Zm-1 1H9v1h14v-1Z"></path><path fill="#D7D3CD" d="M16 11h-6v1h6v-1Zm7 0h-6v1h6v-1Zm-12 1h-1v1h1v-1Z"></path><path fill="#FDF8FF" d="M13 12h-2v1h2v-1Z"></path><path fill="#000" d="M15 12h-2v1h2v-1Z"></path><path fill="#D7D3CD" d="M16 12h-1v1h1v-1Zm2 0h-1v1h1v-1Z"></path><path fill="#FDF8FF" d="M20 12h-2v1h2v-1Z"></path><path fill="#000" d="M22 12h-2v1h2v-1Z"></path><path fill="#D7D3CD" d="M23 12h-1v1h1v-1Zm-12 1H7v1h4v-1Z"></path><path fill="#FDF8FF" d="M13 13h-2v1h2v-1Z"></path><path fill="#000" d="M15 13h-2v1h2v-1Z"></path><path fill="#D7D3CD" d="M18 13h-3v1h3v-1Z"></path><path fill="#FDF8FF" d="M20 13h-2v1h2v-1Z"></path><path fill="#000" d="M22 13h-2v1h2v-1Z"></path><path fill="#D7D3CD" d="M23 13h-1v1h1v-1ZM8 14H7v1h1v-1Zm3 0h-1v1h1v-1Z"></path><path fill="#FDF8FF" d="M13 14h-2v1h2v-1Z"></path><path fill="#000" d="M15 14h-2v1h2v-1Z"></path><path fill="#D7D3CD" d="M16 14h-1v1h1v-1Zm2 0h-1v1h1v-1Z"></path><path fill="#FDF8FF" d="M20 14h-2v1h2v-1Z"></path><path fill="#000" d="M22 14h-2v1h2v-1Z"></path><path fill="#D7D3CD" d="M23 14h-1v1h1v-1ZM8 15H7v1h1v-1Zm3 0h-1v1h1v-1Z"></path><path fill="#FDF8FF" d="M13 15h-2v1h2v-1Z"></path><path fill="#000" d="M15 15h-2v1h2v-1Z"></path><path fill="#D7D3CD" d="M16 15h-1v1h1v-1Zm2 0h-1v1h1v-1Z"></path><path fill="#FDF8FF" d="M20 15h-2v1h2v-1Z"></path><path fill="#000" d="M22 15h-2v1h2v-1Z"></path><path fill="#D7D3CD" d="M23 15h-1v1h1v-1Zm-7 1h-6v1h6v-1Zm7 0h-6v1h6v-1Z"></path></svg>