<svg xmlns="http://www.w3.org/2000/svg" width="32" height="32" fill="none" class="w-[28px] h-[28px] rounded-md outline-[3px] min-w-fit outline-white outline -mr-1 z-50"><path fill="#DFD7D5" d="M0 0h32v32H0z"></path><path fill="#E1D7D5" d="M.1 0H0v.1h.1V0Z"></path><path fill="#34AC80" d="M23 21H9v1h14v-1Zm0 1H9v1h14v-1Zm0 1H9v1h14v-1Zm0 1H9v1h14v-1Zm-12 1H9v1h2v-1Zm12 0H12v1h11v-1Zm-12 1H9v1h2v-1Zm12 0H12v1h11v-1Zm-12 1H9v1h2v-1Zm12 0H12v1h11v-1Zm-12 1H9v1h2v-1Zm12 0H12v1h11v-1Zm-12 1H9v1h2v-1Zm12 0H12v1h11v-1Zm-12 1H9v1h2v-1Zm12 0H12v1h11v-1Zm-12 1H9v1h2v-1Zm12 0H12v1h11v-1Z"></path><path fill="#F8D689" d="M19 23h-5v1h5v-1Zm-4 1h-1v1h1v-1Zm2 0h-1v1h1v-1Zm2 0h-1v1h1v-1Zm-3 1h-1v1h1v-1Zm2 0h-1v1h1v-1Zm-3 1h-1v1h1v-1Zm2 0h-1v1h1v-1Zm2 0h-1v1h1v-1Zm-3 1h-1v1h1v-1Zm2 0h-1v1h1v-1Zm-1 1h-3v1h3v-1Zm2 0h-1v1h1v-1Zm-4 1h-1v1h1v-1Zm4 0h-3v1h3v-1Z"></path><path fill="#4BEA69" d="M17 4h-2v1h2V4Zm-4 1h-1v1h1V5Zm5 0h-2v1h2V5Z"></path><path fill="#FFC110" d="M25 5h-1v1h1V5Z"></path><path fill="#4BEA69" d="M15 6h-2v1h2V6Zm3 0h-2v1h2V6Z"></path><path fill="#FFC110" d="M24 6h-2v1h2V6Z"></path><path fill="#FDF8FF" d="M12 7H9v1h3V7Z"></path><path fill="#4BEA69" d="M18 7h-5v1h5V7Z"></path><path fill="#FFC110" d="M23 7h-3v1h3V7Z"></path><path fill="#4BEA69" d="M9 8H6v1h3V8Z"></path><path fill="#FDF8FF" d="M12 8H9v1h3V8Z"></path><path fill="#4BEA69" d="M19 8h-7v1h7V8Z"></path><path fill="#FFC110" d="M22 8h-3v1h3V8Z"></path><path fill="#FDF8FF" d="M23 8h-1v1h1V8Z"></path><path fill="#4BEA69" d="M5 9H4v1h1V9Zm4 0H6v1h3V9Z"></path><path fill="#FDF8FF" d="M16 9H9v1h7V9Z"></path><path fill="#4BEA69" d="M17 9h-1v1h1V9Z"></path><path fill="#FFC110" d="M21 9h-4v1h4V9Z"></path><path fill="#FDF8FF" d="M23 9h-2v1h2V9Z"></path><path fill="#4BEA69" d="M8 10H5v1h3v-1Z"></path><path fill="#FF638D" d="M9 10H8v1h1v-1Z"></path><path fill="#FDF8FF" d="M16 10H9v1h7v-1Z"></path><path fill="#FFC110" d="M20 10h-4v1h4v-1Z"></path><path fill="#FDF8FF" d="M23 10h-3v1h3v-1Z"></path><path fill="#4BEA69" d="M7 11H6v1h1v-1Z"></path><path fill="#FF638D" d="M9 11H7v1h2v-1Z"></path><path fill="#FDF8FF" d="M16 11H9v1h7v-1Z"></path><path fill="#FFC110" d="M19 11h-3v1h3v-1Z"></path><path fill="#FDF8FF" d="M23 11h-4v1h4v-1Z"></path><path fill="#FF638D" d="M9 12H6v1h3v-1Z"></path><path fill="#FDF8FF" d="M16 12H9v1h7v-1Z"></path><path fill="#FFC110" d="M18 12h-2v1h2v-1Z"></path><path fill="#FDF8FF" d="M23 12h-5v1h5v-1Z"></path><path fill="#FF638D" d="M9 13H5v1h4v-1Z"></path><path fill="#FDF8FF" d="M16 13H9v1h7v-1Z"></path><path fill="#FFC110" d="M17 13h-1v1h1v-1Z"></path><path fill="#FDF8FF" d="M23 13h-6v1h6v-1Z"></path><path fill="#FF638D" d="M9 14H6v1h3v-1Z"></path><path fill="#FDF8FF" d="M23 14H9v1h14v-1Z"></path><path fill="#FF638D" d="M9 15H6v1h3v-1Z"></path><path fill="#FDF8FF" d="M23 15H9v1h14v-1Z"></path><path fill="#FF638D" d="M9 16H6v1h3v-1Z"></path><path fill="#FEB9D5" d="M27 16H9v1h18v-1Z"></path><path fill="#FF638D" d="M7 17H5v1h2v-1Z"></path><path fill="#667AF9" d="M9 17H7v1h2v-1Z"></path><path fill="#FEB9D5" d="M23 17H9v1h14v-1Z"></path><path fill="#FF638D" d="M24 17h-1v1h1v-1Z"></path><path fill="#FEB9D5" d="M25 17h-1v1h1v-1Z"></path><path fill="#FF638D" d="M26 17h-1v1h1v-1Z"></path><path fill="#FEB9D5" d="M27 17h-1v1h1v-1Z"></path><path fill="#667AF9" d="M9 18H5v1h4v-1Z"></path><path fill="#FEB9D5" d="M12 18H9v1h3v-1Z"></path><path fill="#FF638D" d="M13 18h-1v1h1v-1Z"></path><path fill="#FDF8FF" d="M14 18h-1v1h1v-1Z"></path><path fill="#000" d="M15 18h-1v1h1v-1Z"></path><path fill="#FDF8FF" d="M16 18h-1v1h1v-1Z"></path><path fill="#000" d="M17 18h-1v1h1v-1Z"></path><path fill="#FDF8FF" d="M18 18h-1v1h1v-1Z"></path><path fill="#000" d="M19 18h-1v1h1v-1Z"></path><path fill="#FDF8FF" d="M20 18h-1v1h1v-1Z"></path><path fill="#FF638D" d="M21 18h-1v1h1v-1Z"></path><path fill="#FEB9D5" d="M27 18h-6v1h6v-1Z"></path><path fill="#667AF9" d="M9 19H6v1h3v-1Z"></path><path fill="#FEB9D5" d="M27 19H9v1h18v-1Z"></path><path fill="#667AF9" d="M9 20H6v1h3v-1Z"></path><path fill="#FEB9D5" d="M27 20H9v1h18v-1Z"></path><path fill="#667AF9" d="M9 21H7v1h2v-1Zm0 1H8v1h1v-1Z"></path><path fill="#FFC110" d="M16 11h-6v1h6v-1Z"></path><path fill="#F98F30" d="M23 11h-6v1h6v-1Z"></path><path fill="#FFC110" d="M11 12h-1v1h1v-1Z"></path><path fill="#fff" d="M13 12h-2v1h2v-1Z"></path><path fill="#000" d="M15 12h-2v1h2v-1Z"></path><path fill="#FFC110" d="M16 12h-1v1h1v-1Z"></path><path fill="#F98F30" d="M18 12h-1v1h1v-1Z"></path><path fill="#fff" d="M20 12h-2v1h2v-1Z"></path><path fill="#000" d="M22 12h-2v1h2v-1Z"></path><path fill="#F98F30" d="M23 12h-1v1h1v-1Zm-13 1H7v1h3v-1Z"></path><path fill="#FFC110" d="M11 13h-1v1h1v-1Z"></path><path fill="#fff" d="M13 13h-2v1h2v-1Z"></path><path fill="#000" d="M15 13h-2v1h2v-1Z"></path><path fill="#FFC110" d="M16 13h-1v1h1v-1Z"></path><path fill="#F98F30" d="M18 13h-2v1h2v-1Z"></path><path fill="#fff" d="M20 13h-2v1h2v-1Z"></path><path fill="#000" d="M22 13h-2v1h2v-1Z"></path><path fill="#F98F30" d="M23 13h-1v1h1v-1ZM8 14H7v1h1v-1Z"></path><path fill="#FFC110" d="M11 14h-1v1h1v-1Z"></path><path fill="#fff" d="M13 14h-2v1h2v-1Z"></path><path fill="#000" d="M15 14h-2v1h2v-1Z"></path><path fill="#FFC110" d="M16 14h-1v1h1v-1Z"></path><path fill="#F98F30" d="M18 14h-1v1h1v-1Z"></path><path fill="#fff" d="M20 14h-2v1h2v-1Z"></path><path fill="#000" d="M22 14h-2v1h2v-1Z"></path><path fill="#F98F30" d="M23 14h-1v1h1v-1ZM8 15H7v1h1v-1Z"></path><path fill="#FFC110" d="M11 15h-1v1h1v-1Z"></path><path fill="#fff" d="M13 15h-2v1h2v-1Z"></path><path fill="#000" d="M15 15h-2v1h2v-1Z"></path><path fill="#FFC110" d="M16 15h-1v1h1v-1Z"></path><path fill="#F98F30" d="M18 15h-1v1h1v-1Z"></path><path fill="#fff" d="M20 15h-2v1h2v-1Z"></path><path fill="#000" d="M22 15h-2v1h2v-1Z"></path><path fill="#F98F30" d="M23 15h-1v1h1v-1Z"></path><path fill="#FFC110" d="M16 16h-6v1h6v-1Z"></path><path fill="#F98F30" d="M23 16h-6v1h6v-1Z"></path></svg>