<svg xmlns="http://www.w3.org/2000/svg" width="32" height="32" fill="none" class="w-[28px] h-[28px] rounded-md outline-[3px] min-w-fit outline-white outline -mr-1 z-50"><path fill="#D5D7E0" d="M0 0h32v32H0z"></path><path fill="#D5D7E1" d="M.1 0H0v.1h.1V0Z"></path><path fill="#EED811" d="M23 21H9v1h14v-1Zm0 1H9v1h14v-1Zm0 1H9v1h14v-1Zm0 1H9v1h14v-1Zm-12 1H9v1h2v-1Zm12 0H12v1h11v-1Zm-12 1H9v1h2v-1Zm12 0H12v1h11v-1Zm-12 1H9v1h2v-1Zm12 0H12v1h11v-1Zm-12 1H9v1h2v-1Zm12 0H12v1h11v-1Zm-12 1H9v1h2v-1Zm12 0H12v1h11v-1Zm-12 1H9v1h2v-1Zm12 0H12v1h11v-1Zm-12 1H9v1h2v-1Zm12 0H12v1h11v-1Z"></path><path fill="#505A5C" d="M23 21H9v1h14v-1Z"></path><path fill="#FF1A0B" d="M11 22H9v1h2v-1Z"></path><path fill="#505A5C" d="M17 22h-6v1h6v-1Z"></path><path fill="#FF1A0B" d="M20 22h-3v1h3v-1Z"></path><path fill="#505A5C" d="M23 22h-3v1h3v-1Z"></path><path fill="#F78A18" d="M11 23H9v1h2v-1Z"></path><path fill="#505A5C" d="M22 23H11v1h11v-1Z"></path><path fill="#F78A18" d="M23 23h-1v1h1v-1Zm-13 1H9v1h1v-1Z"></path><path fill="#505A5C" d="M19 24h-9v1h9v-1Z"></path><path fill="#F78A18" d="M20 24h-1v1h1v-1Z"></path><path fill="#505A5C" d="M22 24h-2v1h2v-1Z"></path><path fill="#F78A18" d="M23 24h-1v1h1v-1Z"></path><path fill="#505A5C" d="M11 25H9v1h2v-1Zm2 0h-1v1h1v-1Z"></path><path fill="#FFF449" d="M14 25h-1v1h1v-1Z"></path><path fill="#505A5C" d="M17 25h-3v1h3v-1Z"></path><path fill="#FFF449" d="M19 25h-2v1h2v-1Z"></path><path fill="#505A5C" d="M23 25h-4v1h4v-1Zm-12 1H9v1h2v-1Zm9 0h-8v1h8v-1Z"></path><path fill="#FFF449" d="M23 26h-3v1h3v-1Z"></path><path fill="#505A5C" d="M10 27H9v1h1v-1Z"></path><path fill="#068940" d="M11 27h-1v1h1v-1Z"></path><path fill="#505A5C" d="M13 27h-1v1h1v-1Z"></path><path fill="#068940" d="M15 27h-2v1h2v-1Z"></path><path fill="#505A5C" d="M18 27h-3v1h3v-1Z"></path><path fill="#068940" d="M23 27h-5v1h5v-1Zm-12 1H9v1h2v-1Z"></path><path fill="#505A5C" d="M20 28h-8v1h8v-1Z"></path><path fill="#068940" d="M23 28h-3v1h3v-1Z"></path><path fill="#2B83F6" d="M11 29H9v1h2v-1Z"></path><path fill="#505A5C" d="M13 29h-1v1h1v-1Z"></path><path fill="#2B83F6" d="M17 29h-4v1h4v-1Z"></path><path fill="#505A5C" d="M19 29h-2v1h2v-1Z"></path><path fill="#2B83F6" d="M20 29h-1v1h1v-1Z"></path><path fill="#505A5C" d="M22 29h-2v1h2v-1Z"></path><path fill="#2B83F6" d="M23 29h-1v1h1v-1Zm-13 1H9v1h1v-1Z"></path><path fill="#505A5C" d="M11 30h-1v1h1v-1Zm12 0H12v1h11v-1Z"></path><path fill="#9F21A0" d="M11 31H9v1h2v-1Z"></path><path fill="#505A5C" d="M23 31H12v1h11v-1Z"></path><path fill="#FFB913" d="M18 5h-4v1h4V5Zm2 1h-8v1h8V6Zm2 1H10v1h12V7Z"></path><path fill="#667AF9" d="M26 7h-2v1h2V7Z"></path><path fill="#FFF0EE" d="M9 8H4v1h5V8Z"></path><path fill="#FFB913" d="M23 8H9v1h14V8Z"></path><path fill="#667AF9" d="M26 8h-2v1h2V8Z"></path><path fill="#FFF0EE" d="M4 9H3v1h1V9Z"></path><path fill="#FFB913" d="M23 9H9v1h14V9Z"></path><path fill="#FFF0EE" d="M4 10H3v1h1v-1Z"></path><path fill="#FE500C" d="M10 10H8v1h2v-1Z"></path><path fill="#FFB913" d="M23 10H10v1h13v-1Z"></path><path fill="#FE500C" d="M24 10h-1v1h1v-1Z"></path><path fill="#FFF0EE" d="M4 11H3v1h1v-1Z"></path><path fill="#FE500C" d="M11 11H8v1h3v-1Z"></path><path fill="#FFB913" d="M23 11H11v1h12v-1Z"></path><path fill="#FE500C" d="M24 11h-1v1h1v-1Z"></path><path fill="#FFF0EE" d="M5 12H4v1h1v-1Z"></path><path fill="#E11833" d="M9 12H7v1h2v-1Z"></path><path fill="#FE500C" d="M12 12H9v1h3v-1Z"></path><path fill="#FFB913" d="M23 12H12v1h11v-1Z"></path><path fill="#FE500C" d="M25 12h-2v1h2v-1Z"></path><path fill="#FFF0EE" d="M6 13H5v1h1v-1Z"></path><path fill="#E11833" d="M9 13H7v1h2v-1Z"></path><path fill="#FE500C" d="M13 13H9v1h4v-1Z"></path><path fill="#FFB913" d="M22 13h-9v1h9v-1Z"></path><path fill="#FE500C" d="M25 13h-3v1h3v-1Z"></path><path fill="#FFF0EE" d="M7 14H6v1h1v-1Z"></path><path fill="#E11833" d="M10 14H7v1h3v-1Z"></path><path fill="#FE500C" d="M16 14h-6v1h6v-1Z"></path><path fill="#FFB913" d="M21 14h-5v1h5v-1Z"></path><path fill="#FE500C" d="M25 14h-4v1h4v-1Z"></path><path fill="#FFF0EE" d="M8 15H7v1h1v-1Z"></path><path fill="#E11833" d="M10 15H8v1h2v-1Z"></path><path fill="#FE500C" d="M25 15H10v1h15v-1Z"></path><path fill="#FFF0EE" d="M9 16H8v1h1v-1Z"></path><path fill="#E11833" d="M13 16H9v1h4v-1Z"></path><path fill="#FE500C" d="M24 16H13v1h11v-1Z"></path><path fill="#FFF0EE" d="M25 16h-1v1h1v-1Z"></path><path fill="#FFB913" d="M28 16h-1v1h1v-1Z"></path><path fill="#E11833" d="M9 17H8v1h1v-1Z"></path><path fill="#FFF0EE" d="M11 17H9v1h2v-1Z"></path><path fill="#E11833" d="M16 17h-5v1h5v-1Z"></path><path fill="#FE500C" d="M22 17h-6v1h6v-1Z"></path><path fill="#E11833" d="M24 17h-2v1h2v-1Z"></path><path fill="#FFF0EE" d="M26 17h-1v1h1v-1Z"></path><path fill="#E11833" d="M11 18H9v1h2v-1Z"></path><path fill="#FFF0EE" d="M13 18h-2v1h2v-1Z"></path><path fill="#E11833" d="M23 18H13v1h10v-1Z"></path><path fill="#FFF0EE" d="M27 18h-1v1h1v-1Z"></path><path fill="#FFB913" d="M8 19H6v1h2v-1Z"></path><path fill="#E11833" d="M13 19H9v1h4v-1Z"></path><path fill="#FFF0EE" d="M16 19h-3v1h3v-1Z"></path><path fill="#E11833" d="M23 19h-7v1h7v-1Z"></path><path fill="#FFF0EE" d="M28 19h-1v1h1v-1Z"></path><path fill="#667AF9" d="M6 20H5v1h1v-1Z"></path><path fill="#FFB913" d="M8 20H6v1h2v-1Z"></path><path fill="#E11833" d="M16 20h-6v1h6v-1Z"></path><path fill="#FFF0EE" d="M19 20h-3v1h3v-1Z"></path><path fill="#E11833" d="M22 20h-3v1h3v-1Z"></path><path fill="#FFF0EE" d="M28 20h-1v1h1v-1Z"></path><path fill="#667AF9" d="M7 21H5v1h2v-1Z"></path><path fill="#E11833" d="M19 21h-7v1h7v-1Z"></path><path fill="#FFF0EE" d="M22 21h-3v1h3v-1Zm6 0h-1v1h1v-1Z"></path><path fill="#E11833" d="M18 22h-4v1h4v-1Z"></path><path fill="#FFF0EE" d="M27 22h-5v1h5v-1Z"></path><path fill="#000" d="M16 11h-6v1h6v-1Zm7 0h-6v1h6v-1Zm-12 1h-1v1h1v-1Z"></path><path fill="#fff" d="M13 12h-2v1h2v-1Z"></path><path fill="#000" d="M16 12h-3v1h3v-1Zm2 0h-1v1h1v-1Z"></path><path fill="#fff" d="M20 12h-2v1h2v-1Z"></path><path fill="#000" d="M23 12h-3v1h3v-1Zm-12 1H7v1h4v-1Z"></path><path fill="#fff" d="M13 13h-2v1h2v-1Z"></path><path fill="#000" d="M18 13h-5v1h5v-1Z"></path><path fill="#fff" d="M20 13h-2v1h2v-1Z"></path><path fill="#000" d="M23 13h-3v1h3v-1ZM8 14H7v1h1v-1Zm3 0h-1v1h1v-1Z"></path><path fill="#fff" d="M13 14h-2v1h2v-1Z"></path><path fill="#000" d="M16 14h-3v1h3v-1Zm2 0h-1v1h1v-1Z"></path><path fill="#fff" d="M20 14h-2v1h2v-1Z"></path><path fill="#000" d="M23 14h-3v1h3v-1ZM8 15H7v1h1v-1Zm3 0h-1v1h1v-1Z"></path><path fill="#fff" d="M13 15h-2v1h2v-1Z"></path><path fill="#000" d="M16 15h-3v1h3v-1Zm2 0h-1v1h1v-1Z"></path><path fill="#fff" d="M20 15h-2v1h2v-1Z"></path><path fill="#000" d="M23 15h-3v1h3v-1Zm-7 1h-6v1h6v-1Zm7 0h-6v1h6v-1Z"></path></svg>