<svg xmlns="http://www.w3.org/2000/svg" width="32" height="32" fill="none" class="w-[28px] h-[28px] rounded-md outline-[3px] min-w-fit outline-white outline -mr-1 z-50"><path fill="#DFD7D5" d="M0 0h32v32H0z"></path><path fill="#E1D7D5" d="M.1 0H0v.1h.1V0Z"></path><path fill="#1F1D29" d="M23 21H9v1h14v-1Zm0 1H9v1h14v-1Zm0 1H9v1h14v-1Zm0 1H9v1h14v-1Zm-12 1H9v1h2v-1Zm12 0H12v1h11v-1Zm-12 1H9v1h2v-1Zm12 0H12v1h11v-1Zm-12 1H9v1h2v-1Zm12 0H12v1h11v-1Zm-12 1H9v1h2v-1Zm12 0H12v1h11v-1Zm-12 1H9v1h2v-1Zm12 0H12v1h11v-1Zm-12 1H9v1h2v-1Zm12 0H12v1h11v-1Zm-12 1H9v1h2v-1Zm12 0H12v1h11v-1Z"></path><path fill="#FFC110" d="M13 21h-1v1h1v-1Zm7 0h-1v1h1v-1Zm-6 1h-1v1h1v-1Zm5 0h-1v1h1v-1Zm-4 1h-1v1h1v-1Zm3 0h-1v1h1v-1Zm-1 1h-2v1h2v-1Z"></path><path fill="#FFF671" d="M19 25h-6v1h6v-1Z"></path><path fill="#FFC110" d="M17 26h-4v1h4v-1Z"></path><path fill="#FFF671" d="M19 26h-2v1h2v-1Z"></path><path fill="#FFC110" d="M17 27h-4v1h4v-1Z"></path><path fill="#FFF671" d="M19 27h-2v1h2v-1Z"></path><path fill="#1F1D29" d="M9 3H7v1h2V3Zm15 0h-2v1h2V3ZM11 4H7v1h4V4Zm13 0h-4v1h4V4ZM8 5H7v1h1V5Z"></path><path fill="#CAEFF9" d="M9 5H8v1h1V5Z"></path><path fill="#1F1D29" d="M13 5H9v1h4V5Zm9 0h-4v1h4V5Z"></path><path fill="#CAEFF9" d="M23 5h-1v1h1V5Z"></path><path fill="#1F1D29" d="M24 5h-1v1h1V5ZM8 6H7v1h1V6Z"></path><path fill="#CAEFF9" d="M11 6H8v1h3V6Z"></path><path fill="#1F1D29" d="M13 6h-2v1h2V6Zm7 0h-2v1h2V6Z"></path><path fill="#CAEFF9" d="M23 6h-3v1h3V6Z"></path><path fill="#1F1D29" d="M24 6h-1v1h1V6ZM8 7H7v1h1V7Z"></path><path fill="#CAEFF9" d="M12 7H8v1h4V7Z"></path><path fill="#1F1D29" d="M19 7h-7v1h7V7Z"></path><path fill="#CAEFF9" d="M23 7h-4v1h4V7Z"></path><path fill="#1F1D29" d="M24 7h-1v1h1V7ZM8 8H7v1h1V8Z"></path><path fill="#CAEFF9" d="M11 8H8v1h3V8Z"></path><path fill="#1F1D29" d="M20 8h-9v1h9V8Z"></path><path fill="#CAEFF9" d="M23 8h-3v1h3V8Z"></path><path fill="#1F1D29" d="M24 8h-1v1h1V8ZM8 9H7v1h1V9Z"></path><path fill="#CAEFF9" d="M9 9H8v1h1V9Z"></path><path fill="#1F1D29" d="M22 9H9v1h13V9Z"></path><path fill="#CAEFF9" d="M23 9h-1v1h1V9Z"></path><path fill="#1F1D29" d="M24 9h-1v1h1V9Zm0 1H7v1h17v-1Zm0 1H8v1h16v-1Zm0 1H8v1h16v-1Zm0 1H8v1h16v-1Zm0 1H8v1h16v-1Zm0 1H8v1h16v-1Zm0 1H8v1h16v-1Z"></path><path fill="#7CC4F2" d="M11 17H6v1h5v-1Z"></path><path fill="#CAEFF9" d="M16 17h-5v1h5v-1Z"></path><path fill="#FA6FE2" d="M18 17h-2v1h2v-1Z"></path><path fill="#CAEFF9" d="M22 17h-4v1h4v-1Z"></path><path fill="#7CC4F2" d="M26 17h-4v1h4v-1Z"></path><path fill="#CAEFF9" d="M16 18H8v1h8v-1Z"></path><path fill="#5A6B7B" d="M17 18h-1v1h1v-1Z"></path><path fill="#CAEFF9" d="M24 18h-7v1h7v-1Z"></path><path fill="#7CC4F2" d="M11 19H6v1h5v-1Z"></path><path fill="#CAEFF9" d="M14 19h-3v1h3v-1Z"></path><path fill="#5A6B7B" d="M18 19h-4v1h4v-1Z"></path><path fill="#CAEFF9" d="M22 19h-4v1h4v-1Z"></path><path fill="#7CC4F2" d="M26 19h-4v1h4v-1Z"></path><path fill="#CAEFF9" d="M24 20H8v1h16v-1Z"></path><path fill="#D19A54" d="M16 11h-6v1h6v-1Zm7 0h-6v1h6v-1Zm-12 1h-1v1h1v-1Z"></path><path fill="#fff" d="M13 12h-2v1h2v-1Z"></path><path fill="#000" d="M15 12h-2v1h2v-1Z"></path><path fill="#D19A54" d="M16 12h-1v1h1v-1Zm2 0h-1v1h1v-1Z"></path><path fill="#fff" d="M20 12h-2v1h2v-1Z"></path><path fill="#000" d="M22 12h-2v1h2v-1Z"></path><path fill="#D19A54" d="M23 12h-1v1h1v-1Zm-12 1H7v1h4v-1Z"></path><path fill="#fff" d="M13 13h-2v1h2v-1Z"></path><path fill="#000" d="M15 13h-2v1h2v-1Z"></path><path fill="#D19A54" d="M18 13h-3v1h3v-1Z"></path><path fill="#fff" d="M20 13h-2v1h2v-1Z"></path><path fill="#000" d="M22 13h-2v1h2v-1Z"></path><path fill="#D19A54" d="M23 13h-1v1h1v-1ZM8 14H7v1h1v-1Zm3 0h-1v1h1v-1Z"></path><path fill="#fff" d="M13 14h-2v1h2v-1Z"></path><path fill="#000" d="M15 14h-2v1h2v-1Z"></path><path fill="#D19A54" d="M16 14h-1v1h1v-1Zm2 0h-1v1h1v-1Z"></path><path fill="#fff" d="M20 14h-2v1h2v-1Z"></path><path fill="#000" d="M22 14h-2v1h2v-1Z"></path><path fill="#D19A54" d="M23 14h-1v1h1v-1ZM8 15H7v1h1v-1Zm3 0h-1v1h1v-1Z"></path><path fill="#fff" d="M13 15h-2v1h2v-1Z"></path><path fill="#000" d="M15 15h-2v1h2v-1Z"></path><path fill="#D19A54" d="M16 15h-1v1h1v-1Zm2 0h-1v1h1v-1Z"></path><path fill="#fff" d="M20 15h-2v1h2v-1Z"></path><path fill="#000" d="M22 15h-2v1h2v-1Z"></path><path fill="#D19A54" d="M23 15h-1v1h1v-1Zm-7 1h-6v1h6v-1Zm7 0h-6v1h6v-1Z"></path></svg>