<svg xmlns="http://www.w3.org/2000/svg" width="32" height="32" fill="none" class="w-[28px] h-[28px] rounded-md outline-[3px] min-w-fit outline-white outline -mr-1 z-50"><path fill="#DFD7D5" d="M0 0h32v32H0z"></path><path fill="#E1D7D5" d="M.1 0H0v.1h.1V0Z"></path><path fill="#9F21A0" d="M23 21H9v1h14v-1Zm0 1H9v1h14v-1Zm0 1H9v1h14v-1Zm0 1H9v1h14v-1Zm-12 1H9v1h2v-1Zm12 0H12v1h11v-1Zm-12 1H9v1h2v-1Zm12 0H12v1h11v-1Zm-12 1H9v1h2v-1Zm12 0H12v1h11v-1Zm-12 1H9v1h2v-1Zm12 0H12v1h11v-1Zm-12 1H9v1h2v-1Zm12 0H12v1h11v-1Zm-12 1H9v1h2v-1Zm12 0H12v1h11v-1Zm-12 1H9v1h2v-1Zm12 0H12v1h11v-1Z"></path><path fill="#FFF0EE" d="M19 24h-1v1h1v-1Zm-2 1h-3v1h3v-1Z"></path><path fill="#000" d="M18 25h-1v1h1v-1Z"></path><path fill="#FFF0EE" d="M19 25h-1v1h1v-1Z"></path><path fill="#F38B7C" d="M20 25h-1v1h1v-1Z"></path><path fill="#FFF0EE" d="M14 26h-1v1h1v-1Zm2 0h-1v1h1v-1Z"></path><path fill="#000" d="M17 26h-1v1h1v-1Z"></path><path fill="#FFF0EE" d="M19 26h-2v1h2v-1Zm-5 1h-1v1h1v-1Zm2 0h-1v1h1v-1Z"></path><path fill="#F38B7C" d="M18 27h-2v1h2v-1Z"></path><path fill="#FFF0EE" d="M19 27h-1v1h1v-1Zm-3 1h-1v1h1v-1Zm3 0h-1v1h1v-1Z"></path><path fill="#E11833" d="M14 3h-1v1h1V3Zm4 0h-3v1h3V3Zm1 1h-7v1h7V4Zm0 1h-8v1h8V5Z"></path><path fill="#F9F4E6" d="M12 6h-2v1h2V6Z"></path><path fill="#E11833" d="M19 6h-7v1h7V6Z"></path><path fill="#F9F4E6" d="M22 6h-3v1h3V6Zm-7 1H9v1h6V7Z"></path><path fill="#E11833" d="M19 7h-4v1h4V7Z"></path><path fill="#F9F4E6" d="M23 7h-4v1h4V7Zm-5 1H9v1h9V8Z"></path><path fill="#E11833" d="M19 8h-1v1h1V8Z"></path><path fill="#F9F4E6" d="M23 8h-4v1h4V8Zm1 1H8v1h16V9Zm0 1H8v1h16v-1Zm0 1H8v1h16v-1Zm0 1H8v1h16v-1Zm0 1H8v1h16v-1Zm0 1H8v1h16v-1Zm0 1H8v1h16v-1Zm0 1H8v1h16v-1Zm-8 1H8v1h8v-1Z"></path><path fill="#F98F30" d="M20 17h-4v1h4v-1Z"></path><path fill="#F9F4E6" d="M24 17h-4v1h4v-1Zm-8 1H8v1h8v-1Z"></path><path fill="#F98F30" d="M22 18h-6v1h6v-1Z"></path><path fill="#F9F4E6" d="M24 18h-2v1h2v-1Zm-8 1H8v1h8v-1Z"></path><path fill="#E11833" d="M20 19h-4v1h4v-1Z"></path><path fill="#F9F4E6" d="M24 19h-4v1h4v-1Zm-8 1H8v1h8v-1Z"></path><path fill="#E11833" d="M20 20h-4v1h4v-1Z"></path><path fill="#F9F4E6" d="M24 20h-4v1h4v-1Z"></path><path fill="#F3322C" d="M16 11h-6v1h6v-1Zm7 0h-6v1h6v-1Zm-12 1h-1v1h1v-1Z"></path><path fill="#fff" d="M13 12h-2v1h2v-1Z"></path><path fill="#000" d="M15 12h-2v1h2v-1Z"></path><path fill="#F3322C" d="M16 12h-1v1h1v-1Zm2 0h-1v1h1v-1Z"></path><path fill="#fff" d="M20 12h-2v1h2v-1Z"></path><path fill="#000" d="M22 12h-2v1h2v-1Z"></path><path fill="#F3322C" d="M23 12h-1v1h1v-1Zm-12 1H7v1h4v-1Z"></path><path fill="#fff" d="M13 13h-2v1h2v-1Z"></path><path fill="#000" d="M15 13h-2v1h2v-1Z"></path><path fill="#F3322C" d="M18 13h-3v1h3v-1Z"></path><path fill="#fff" d="M20 13h-2v1h2v-1Z"></path><path fill="#000" d="M22 13h-2v1h2v-1Z"></path><path fill="#F3322C" d="M23 13h-1v1h1v-1ZM8 14H7v1h1v-1Zm3 0h-1v1h1v-1Z"></path><path fill="#fff" d="M13 14h-2v1h2v-1Z"></path><path fill="#000" d="M15 14h-2v1h2v-1Z"></path><path fill="#F3322C" d="M16 14h-1v1h1v-1Zm2 0h-1v1h1v-1Z"></path><path fill="#fff" d="M20 14h-2v1h2v-1Z"></path><path fill="#000" d="M22 14h-2v1h2v-1Z"></path><path fill="#F3322C" d="M23 14h-1v1h1v-1ZM8 15H7v1h1v-1Zm3 0h-1v1h1v-1Z"></path><path fill="#fff" d="M13 15h-2v1h2v-1Z"></path><path fill="#000" d="M15 15h-2v1h2v-1Z"></path><path fill="#F3322C" d="M16 15h-1v1h1v-1Zm2 0h-1v1h1v-1Z"></path><path fill="#fff" d="M20 15h-2v1h2v-1Z"></path><path fill="#000" d="M22 15h-2v1h2v-1Z"></path><path fill="#F3322C" d="M23 15h-1v1h1v-1Zm-7 1h-6v1h6v-1Zm7 0h-6v1h6v-1Z"></path></svg>