<svg xmlns="http://www.w3.org/2000/svg" width="32" height="32" fill="none" class="w-[28px] h-[28px] rounded-md outline-[3px] min-w-fit outline-white outline -mr-1 z-50"><path fill="#DFD7D5" d="M0 0h32v32H0z"></path><path fill="#E1D7D5" d="M.1 0H0v.1h.1V0Z"></path><path fill="#B9185C" d="M23 21H9v1h14v-1Zm0 1H9v1h14v-1Zm0 1H9v1h14v-1Zm0 1H9v1h14v-1Zm-12 1H9v1h2v-1Zm12 0H12v1h11v-1Zm-12 1H9v1h2v-1Zm12 0H12v1h11v-1Zm-12 1H9v1h2v-1Zm12 0H12v1h11v-1Zm-12 1H9v1h2v-1Zm12 0H12v1h11v-1Zm-12 1H9v1h2v-1Zm12 0H12v1h11v-1Zm-12 1H9v1h2v-1Zm12 0H12v1h11v-1Zm-12 1H9v1h2v-1Zm12 0H12v1h11v-1Z"></path><path fill="#FF638D" d="M13 21h-2v1h2v-1Zm4 0h-2v1h2v-1Zm4 0h-2v1h2v-1Zm-8 1h-2v1h2v-1Zm4 0h-2v1h2v-1Zm4 0h-2v1h2v-1Zm-10 1H9v1h2v-1Zm4 0h-2v1h2v-1Zm4 0h-2v1h2v-1Zm4 0h-2v1h2v-1Zm-12 1H9v1h2v-1Zm4 0h-2v1h2v-1Zm4 0h-2v1h2v-1Zm4 0h-2v1h2v-1Zm-10 1h-1v1h1v-1Zm4 0h-2v1h2v-1Zm4 0h-2v1h2v-1Zm-8 1h-1v1h1v-1Zm4 0h-2v1h2v-1Zm4 0h-2v1h2v-1Zm-10 1H9v1h2v-1Zm4 0h-2v1h2v-1Zm4 0h-2v1h2v-1Zm4 0h-2v1h2v-1Zm-12 1H9v1h2v-1Zm4 0h-2v1h2v-1Zm4 0h-2v1h2v-1Zm4 0h-2v1h2v-1Zm-10 1h-1v1h1v-1Zm4 0h-2v1h2v-1Zm4 0h-2v1h2v-1Zm-8 1h-1v1h1v-1Zm4 0h-2v1h2v-1Zm4 0h-2v1h2v-1Zm-10 1H9v1h2v-1Zm4 0h-2v1h2v-1Zm4 0h-2v1h2v-1Zm4 0h-2v1h2v-1Z"></path><path fill="#fff" d="M17 2h-3v1h3V2Zm2 1h-7v1h7V3Zm-6 1h-1v1h1V4Z"></path><path fill="#000" d="M14 4h-1v1h1V4Z"></path><path fill="#fff" d="M16 4h-2v1h2V4Z"></path><path fill="#000" d="M17 4h-1v1h1V4Z"></path><path fill="#fff" d="M19 4h-2v1h2V4Z"></path><path fill="#FF7216" d="M15 5H9v1h6V5Z"></path><path fill="#fff" d="M20 5h-5v1h5V5Z"></path><path fill="#9F4B27" d="M25 5h-1v1h1V5Zm2 0h-1v1h1V5Z"></path><path fill="#fff" d="M20 6h-9v1h9V6Z"></path><path fill="#9F4B27" d="M27 6h-2v1h2V6ZM5 7H4v1h1V7Zm2 0H6v1h1V7Z"></path><path fill="#fff" d="M13 7h-2v1h2V7Z"></path><path fill="#000" d="M14 7h-1v1h1V7Z"></path><path fill="#fff" d="M15 7h-1v1h1V7Z"></path><path fill="#000" d="M16 7h-1v1h1V7Z"></path><path fill="#fff" d="M17 7h-1v1h1V7Z"></path><path fill="#000" d="M18 7h-1v1h1V7Z"></path><path fill="#fff" d="M20 7h-2v1h2V7Z"></path><path fill="#F3322C" d="M23 7h-1v1h1V7Z"></path><path fill="#9F4B27" d="M27 7h-1v1h1V7ZM7 8H5v1h2V8Z"></path><path fill="#fff" d="M19 8h-7v1h7V8Z"></path><path fill="#F3322C" d="M22 8h-1v1h1V8Z"></path><path fill="#9F4B27" d="M26 8h-1v1h1V8ZM7 9H6v1h1V9Z"></path><path fill="#F9E8DD" d="M12 9h-1v1h1V9Z"></path><path fill="#F3322C" d="M13 9h-1v1h1V9Z"></path><path fill="#F9E8DD" d="M14 9h-1v1h1V9Z"></path><path fill="#F3322C" d="M15 9h-1v1h1V9Z"></path><path fill="#F9E8DD" d="M16 9h-1v1h1V9Z"></path><path fill="#F3322C" d="M17 9h-1v1h1V9Z"></path><path fill="#F9E8DD" d="M18 9h-1v1h1V9Z"></path><path fill="#F3322C" d="M19 9h-1v1h1V9Z"></path><path fill="#F9E8DD" d="M20 9h-1v1h1V9Z"></path><path fill="#F3322C" d="M21 9h-1v1h1V9Z"></path><path fill="#F9E8DD" d="M23 9h-2v1h2V9Z"></path><path fill="#9F4B27" d="M26 9h-1v1h1V9ZM7 10H6v1h1v-1Z"></path><path fill="#F9E8DD" d="M12 10h-1v1h1v-1Z"></path><path fill="#F3322C" d="M13 10h-1v1h1v-1Z"></path><path fill="#F9E8DD" d="M14 10h-1v1h1v-1Z"></path><path fill="#F3322C" d="M15 10h-1v1h1v-1Z"></path><path fill="#F9E8DD" d="M16 10h-1v1h1v-1Z"></path><path fill="#F3322C" d="M17 10h-1v1h1v-1Z"></path><path fill="#F9E8DD" d="M18 10h-1v1h1v-1Z"></path><path fill="#F3322C" d="M19 10h-1v1h1v-1Z"></path><path fill="#F9E8DD" d="M20 10h-1v1h1v-1Z"></path><path fill="#F3322C" d="M21 10h-1v1h1v-1Z"></path><path fill="#9F4B27" d="M25 10h-1v1h1v-1ZM9 11H7v1h2v-1Z"></path><path fill="#fff" d="M23 11H10v1h13v-1Z"></path><path fill="#9F4B27" d="M25 11h-1v1h1v-1Z"></path><path fill="#fff" d="M24 12H9v1h15v-1Z"></path><path fill="#9F4B27" d="M25 12h-1v1h1v-1Z"></path><path fill="#fff" d="M25 13H9v1h16v-1Zm0 1H8v1h17v-1Zm1 1H8v1h18v-1Zm0 1H8v1h18v-1Zm0 1H8v1h18v-1Zm-16 1H8v1h2v-1Z"></path><path fill="#7CC4F2" d="M11 18h-1v1h1v-1Z"></path><path fill="#fff" d="M16 18h-5v1h5v-1Z"></path><path fill="#7CC4F2" d="M20 18h-4v1h4v-1Z"></path><path fill="#fff" d="M25 18h-5v1h5v-1Zm-14 1H9v1h2v-1Z"></path><path fill="#7CC4F2" d="M12 19h-1v1h1v-1Z"></path><path fill="#fff" d="M22 19H12v1h10v-1Z"></path><path fill="#7CC4F2" d="M23 19h-1v1h1v-1Z"></path><path fill="#fff" d="M24 19h-1v1h1v-1Z"></path><path fill="#7CC4F2" d="M25 19h-1v1h1v-1Zm-9 1H9v1h7v-1Z"></path><path fill="#fff" d="M21 20h-5v1h5v-1Z"></path><path fill="#7CC4F2" d="M25 20h-4v1h4v-1Zm-1 1h-1v1h1v-1Zm0 1h-1v1h1v-1Z"></path><path fill="#B9185C" d="M16 11h-6v1h6v-1Zm7 0h-6v1h6v-1Zm-12 1h-1v1h1v-1Z"></path><path fill="#fff" d="M13 12h-2v1h2v-1Z"></path><path fill="#000" d="M15 12h-2v1h2v-1Z"></path><path fill="#B9185C" d="M16 12h-1v1h1v-1Zm2 0h-1v1h1v-1Z"></path><path fill="#fff" d="M20 12h-2v1h2v-1Z"></path><path fill="#000" d="M22 12h-2v1h2v-1Z"></path><path fill="#B9185C" d="M23 12h-1v1h1v-1Zm-12 1H7v1h4v-1Z"></path><path fill="#fff" d="M13 13h-2v1h2v-1Z"></path><path fill="#000" d="M15 13h-2v1h2v-1Z"></path><path fill="#B9185C" d="M18 13h-3v1h3v-1Z"></path><path fill="#fff" d="M20 13h-2v1h2v-1Z"></path><path fill="#000" d="M22 13h-2v1h2v-1Z"></path><path fill="#B9185C" d="M23 13h-1v1h1v-1ZM8 14H7v1h1v-1Zm3 0h-1v1h1v-1Z"></path><path fill="#fff" d="M13 14h-2v1h2v-1Z"></path><path fill="#000" d="M15 14h-2v1h2v-1Z"></path><path fill="#B9185C" d="M16 14h-1v1h1v-1Zm2 0h-1v1h1v-1Z"></path><path fill="#fff" d="M20 14h-2v1h2v-1Z"></path><path fill="#000" d="M22 14h-2v1h2v-1Z"></path><path fill="#B9185C" d="M23 14h-1v1h1v-1ZM8 15H7v1h1v-1Zm3 0h-1v1h1v-1Z"></path><path fill="#fff" d="M13 15h-2v1h2v-1Z"></path><path fill="#000" d="M15 15h-2v1h2v-1Z"></path><path fill="#B9185C" d="M16 15h-1v1h1v-1Zm2 0h-1v1h1v-1Z"></path><path fill="#fff" d="M20 15h-2v1h2v-1Z"></path><path fill="#000" d="M22 15h-2v1h2v-1Z"></path><path fill="#B9185C" d="M23 15h-1v1h1v-1Zm-7 1h-6v1h6v-1Zm7 0h-6v1h6v-1Z"></path></svg>