<svg xmlns="http://www.w3.org/2000/svg" width="32" height="32" fill="none" class="w-[28px] h-[28px] rounded-md outline-[3px] min-w-fit outline-white outline -mr-1 z-50"><path fill="#DFD7D5" d="M0 0h32v32H0z"></path><path fill="#E1D7D5" d="M.1 0H0v.1h.1V0Z"></path><path fill="#4BEA69" d="M23 21H9v1h14v-1Zm0 1H9v1h14v-1Zm0 1H9v1h14v-1Zm0 1H9v1h14v-1Zm-12 1H9v1h2v-1Zm12 0H12v1h11v-1Zm-12 1H9v1h2v-1Zm12 0H12v1h11v-1Zm-12 1H9v1h2v-1Zm12 0H12v1h11v-1Zm-12 1H9v1h2v-1Zm12 0H12v1h11v-1Zm-12 1H9v1h2v-1Zm12 0H12v1h11v-1Zm-12 1H9v1h2v-1Zm12 0H12v1h11v-1Zm-12 1H9v1h2v-1Zm12 0H12v1h11v-1Z"></path><path fill="#343235" d="M18 24h-4v1h4v-1Zm-2 1h-2v1h2v-1Z"></path><path fill="#E5E5DE" d="M18 25h-2v1h2v-1Z"></path><path fill="#343235" d="M16 26h-2v1h2v-1Z"></path><path fill="#E5E5DE" d="M18 26h-2v1h2v-1Zm0 1h-4v1h4v-1Z"></path><path fill="#34AC80" d="M14 4h-3v1h3V4Z"></path><path fill="#4BEA69" d="M22 4h-3v1h3V4Z"></path><path fill="#34AC80" d="M15 5h-5v1h5V5Z"></path><path fill="#4BEA69" d="M23 5h-5v1h5V5Z"></path><path fill="#34AC80" d="M15 6h-5v1h5V6Z"></path><path fill="#4BEA69" d="M23 6h-5v1h5V6ZM11 7H8v1h3V7Z"></path><path fill="#34AC80" d="M16 7h-5v1h5V7Z"></path><path fill="#4BEA69" d="M23 7h-6v1h6V7Z"></path><path fill="#34AC80" d="M25 7h-2v1h2V7Z"></path><path fill="#4BEA69" d="M11 8H7v1h4V8Z"></path><path fill="#34AC80" d="M17 8h-6v1h6V8Z"></path><path fill="#4BEA69" d="M21 8h-4v1h4V8Z"></path><path fill="#34AC80" d="M26 8h-5v1h5V8Z"></path><path fill="#4BEA69" d="M12 9H7v1h5V9Z"></path><path fill="#34AC80" d="M17 9h-5v1h5V9Z"></path><path fill="#4BEA69" d="M20 9h-3v1h3V9Z"></path><path fill="#34AC80" d="M26 9h-6v1h6V9Z"></path><path fill="#4BEA69" d="M13 10H7v1h6v-1Z"></path><path fill="#068940" d="M14 10h-1v1h1v-1Z"></path><path fill="#34AC80" d="M16 10h-2v1h2v-1Z"></path><path fill="#4BEA69" d="M19 10h-3v1h3v-1Z"></path><path fill="#068940" d="M20 10h-1v1h1v-1Z"></path><path fill="#34AC80" d="M26 10h-6v1h6v-1Z"></path><path fill="#4BEA69" d="M14 11H8v1h6v-1Z"></path><path fill="#068940" d="M15 11h-1v1h1v-1Z"></path><path fill="#34AC80" d="M16 11h-1v1h1v-1Z"></path><path fill="#4BEA69" d="M18 11h-2v1h2v-1Z"></path><path fill="#068940" d="M19 11h-1v1h1v-1Z"></path><path fill="#34AC80" d="M25 11h-6v1h6v-1Z"></path><path fill="#4BEA69" d="M15 12h-5v1h5v-1Z"></path><path fill="#068940" d="M16 12h-1v1h1v-1Z"></path><path fill="#4BEA69" d="M17 12h-1v1h1v-1Z"></path><path fill="#068940" d="M18 12h-1v1h1v-1Z"></path><path fill="#34AC80" d="M23 12h-5v1h5v-1Zm-10 1h-2v1h2v-1Z"></path><path fill="#4BEA69" d="M16 13h-3v1h3v-1Z"></path><path fill="#068940" d="M17 13h-1v1h1v-1Z"></path><path fill="#4BEA69" d="M20 13h-3v1h3v-1Z"></path><path fill="#34AC80" d="M22 13h-2v1h2v-1Zm-7 1h-5v1h5v-1Z"></path><path fill="#068940" d="M16 14h-1v1h1v-1Z"></path><path fill="#4BEA69" d="M17 14h-1v1h1v-1Z"></path><path fill="#068940" d="M18 14h-1v1h1v-1Z"></path><path fill="#4BEA69" d="M23 14h-5v1h5v-1Z"></path><path fill="#34AC80" d="M14 15H8v1h6v-1Z"></path><path fill="#068940" d="M15 15h-1v1h1v-1Z"></path><path fill="#4BEA69" d="M17 15h-2v1h2v-1Z"></path><path fill="#34AC80" d="M18 15h-1v1h1v-1Z"></path><path fill="#068940" d="M19 15h-1v1h1v-1Z"></path><path fill="#4BEA69" d="M25 15h-6v1h6v-1Z"></path><path fill="#34AC80" d="M13 16H7v1h6v-1Z"></path><path fill="#068940" d="M14 16h-1v1h1v-1Z"></path><path fill="#4BEA69" d="M17 16h-3v1h3v-1Z"></path><path fill="#34AC80" d="M19 16h-2v1h2v-1Z"></path><path fill="#068940" d="M20 16h-1v1h1v-1Z"></path><path fill="#4BEA69" d="M26 16h-6v1h6v-1Z"></path><path fill="#34AC80" d="M13 17H7v1h6v-1Z"></path><path fill="#4BEA69" d="M16 17h-3v1h3v-1Z"></path><path fill="#34AC80" d="M21 17h-5v1h5v-1Z"></path><path fill="#4BEA69" d="M26 17h-5v1h5v-1Z"></path><path fill="#34AC80" d="M12 18H7v1h5v-1Z"></path><path fill="#4BEA69" d="M16 18h-4v1h4v-1Z"></path><path fill="#34AC80" d="M17 18h-1v1h1v-1Z"></path><path fill="#0B5027" d="M22 18h-5v1h5v-1Z"></path><path fill="#4BEA69" d="M26 18h-4v1h4v-1Z"></path><path fill="#068940" d="M29 18h-2v1h2v-1Z"></path><path fill="#34AC80" d="M10 19H8v1h2v-1Z"></path><path fill="#4BEA69" d="M16 19h-6v1h6v-1Z"></path><path fill="#068940" d="M17 19h-1v1h1v-1Z"></path><path fill="#34AC80" d="M22 19h-5v1h5v-1Z"></path><path fill="#4BEA69" d="M25 19h-3v1h3v-1Z"></path><path fill="#068940" d="M29 19h-4v1h4v-1Z"></path><path fill="#4BEA69" d="M15 20h-5v1h5v-1Z"></path><path fill="#068940" d="M18 20h-3v1h3v-1Z"></path><path fill="#34AC80" d="M23 20h-5v1h5v-1Z"></path><path fill="#068940" d="M28 20h-5v1h5v-1Z"></path><path fill="#4BEA69" d="M15 21h-5v1h5v-1Z"></path><path fill="#34AC80" d="M23 21h-5v1h5v-1Z"></path><path fill="#4BEA69" d="M14 22h-3v1h3v-1Z"></path><path fill="#34AC80" d="M22 22h-3v1h3v-1Z"></path><path fill="#00A556" d="M16 11h-6v1h6v-1Zm7 0h-6v1h6v-1Zm-12 1h-1v1h1v-1Z"></path><path fill="#fff" d="M13 12h-2v1h2v-1Z"></path><path fill="#000" d="M15 12h-2v1h2v-1Z"></path><path fill="#00A556" d="M16 12h-1v1h1v-1Zm2 0h-1v1h1v-1Z"></path><path fill="#fff" d="M20 12h-2v1h2v-1Z"></path><path fill="#000" d="M22 12h-2v1h2v-1Z"></path><path fill="#00A556" d="M23 12h-1v1h1v-1Zm-12 1H7v1h4v-1Z"></path><path fill="#fff" d="M13 13h-2v1h2v-1Z"></path><path fill="#000" d="M15 13h-2v1h2v-1Z"></path><path fill="#00A556" d="M18 13h-3v1h3v-1Z"></path><path fill="#fff" d="M20 13h-2v1h2v-1Z"></path><path fill="#000" d="M22 13h-2v1h2v-1Z"></path><path fill="#00A556" d="M23 13h-1v1h1v-1ZM8 14H7v1h1v-1Zm3 0h-1v1h1v-1Z"></path><path fill="#fff" d="M13 14h-2v1h2v-1Z"></path><path fill="#000" d="M15 14h-2v1h2v-1Z"></path><path fill="#00A556" d="M16 14h-1v1h1v-1Zm2 0h-1v1h1v-1Z"></path><path fill="#fff" d="M20 14h-2v1h2v-1Z"></path><path fill="#000" d="M22 14h-2v1h2v-1Z"></path><path fill="#00A556" d="M23 14h-1v1h1v-1ZM8 15H7v1h1v-1Zm3 0h-1v1h1v-1Z"></path><path fill="#fff" d="M13 15h-2v1h2v-1Z"></path><path fill="#000" d="M15 15h-2v1h2v-1Z"></path><path fill="#00A556" d="M16 15h-1v1h1v-1Zm2 0h-1v1h1v-1Z"></path><path fill="#fff" d="M20 15h-2v1h2v-1Z"></path><path fill="#000" d="M22 15h-2v1h2v-1Z"></path><path fill="#00A556" d="M23 15h-1v1h1v-1Zm-7 1h-6v1h6v-1Zm7 0h-6v1h6v-1Z"></path></svg>