<svg xmlns="http://www.w3.org/2000/svg" width="19" height="27" fill="none" style="filter: drop-shadow(rgba(0, 0, 0, 0.1) 0px 1px 3px) drop-shadow(rgba(0, 0, 0, 0.06) 0px 1px 2px);"><path fill="#fff" d="M3.398 22.704C2.132 23.94 0 23.044 0 21.274V5.252C0 3.47 2.155 2.579 3.414 3.839L15.146 15.57c1.26 1.26.368 3.414-1.414 3.414H7.886a1.675 1.675 0 0 0-1.17.477l-3.318 3.243Z"></path><path fill="#000" d="M3.307 5.972c-.63-.63-1.707-.184-1.707.707v13.148c0 .883 1.06 1.332 1.695.719l2.913-2.815a1 1 0 0 1 .452-.252l.26-.065c.08-.02.162-.03.243-.03h5.143c.89 0 1.337-1.077.707-1.707L3.307 5.972Z"></path></svg>