<svg xmlns="http://www.w3.org/2000/svg" width="18" height="18" fill="none"><path fill="#000" fill-opacity="0.57" fill-rule="evenodd" d="M7.174 15.091v-2.87h2.87v2.87h-2.87Zm-1.435 0v-2.87H2.87v2.87h2.87Zm4.305-4.304h-2.87v-2.87h2.87v2.87Zm-4.305 0v-2.87H2.87v2.87h2.87Zm4.305-4.305h-2.87V5.047H5.74v1.435H2.87V5.047H1.436v11.479h14.348V5.047H14.35v1.435h-2.87V5.047h-1.435v1.435Zm1.435-2.87h4.304V2.179H1.435v1.435h10.044Zm2.87 11.48h-2.87v-2.87h2.87v2.87Zm0-4.305h-2.87v-2.87h2.87v2.87Z" clip-rule="evenodd"></path></svg>