<svg xmlns="http://www.w3.org/2000/svg" width="24" height="24" fill="none"><path fill="#000" fill-rule="evenodd" d="M11.333 5.366a6.748 6.748 0 0 1 1.334 0c.805.08 1.568.304 2.263.644l.008.004a6.66 6.66 0 0 1 1.126.701 6.7 6.7 0 0 1 1.973 2.453 6.667 6.667 0 0 1-6.704 9.466V5.366ZM10 5.64a6.67 6.67 0 0 0 0 12.723v-1.416a5.335 5.335 0 0 1 0-9.891V5.639ZM17.333 12a5.336 5.336 0 0 1-4.07 5.183l3.896-6.541c.114.433.174.888.174 1.358Zm-1.925-4.102a5.37 5.37 0 0 1 1.094 1.241l-3.835 6.44v-2.74l2.741-4.941Zm-2.741-1.19v3.383l1.616-2.913a5.293 5.293 0 0 0-1.616-.47Z" clip-rule="evenodd"></path></svg>