<svg xmlns="http://www.w3.org/2000/svg" width="18" height="19" fill="none"><path fill="#000" fill-opacity="0.57" fill-rule="evenodd" d="M8.609 3.74H4.304v10.043H2.87V3.74c0-.792.642-1.435 1.434-1.435h5.022l.718.718 3.587 3.587.717.717v6.458h-1.434v-5.74h-2.87A1.435 1.435 0 0 1 8.609 6.61V3.74Zm-5.74 12.913v-1.435h11.479v1.435H2.87Zm8.733-10.044-1.558-1.558V6.61h1.558ZM5.739 8.044h2.153V6.609H5.739v1.435Zm0 2.87V9.479h5.74v1.435h-5.74Zm0 1.434v1.435h5.74v-1.435h-5.74Z" clip-rule="evenodd"></path></svg>