<svg xmlns="http://www.w3.org/2000/svg" width="25" height="25" fill="none"><path fill="#0066DA" d="m3.514 18.817.882 1.523c.183.321.447.573.756.756l3.15-5.452h-6.3c0 .355.092.71.275 1.03l1.237 2.143Z"></path><path fill="#00AC47" d="m12.002 9.23-3.15-5.453a2.08 2.08 0 0 0-.756.756l-5.82 10.08a2.08 2.08 0 0 0-.274 1.03h6.3l3.7-6.414Z"></path><path fill="#EA4335" d="M18.852 21.096a2.08 2.08 0 0 0 .756-.756l.366-.63 1.753-3.035a2.08 2.08 0 0 0 .275-1.031h-6.3l1.34 2.634 1.81 2.818Z"></path><path fill="#00832D" d="m12.002 9.23 3.15-5.453a2.014 2.014 0 0 0-1.031-.275H9.883a2.13 2.13 0 0 0-1.031.275l3.15 5.452Z"></path><path fill="#2684FC" d="M15.702 15.644h-7.4l-3.15 5.452c.31.183.664.275 1.031.275h11.638a2.13 2.13 0 0 0 1.031-.275l-3.15-5.452Z"></path><path fill="#FFBA00" d="m18.817 9.573-2.909-5.04a2.08 2.08 0 0 0-.756-.756l-3.15 5.452 3.7 6.415h6.289c0-.355-.092-.71-.275-1.031l-2.899-5.04Z"></path></svg>