<svg xmlns="http://www.w3.org/2000/svg" width="18" height="20" fill="none"><g filter="url(#zip_svg__a)"><path fill="#EF5A3C" fill-rule="evenodd" d="M8.609 3.528H4.304v10.044H2.87V3.528c0-.792.642-1.435 1.434-1.435h5.022l.718.718 3.587 3.587.717.717v6.458h-1.434v-5.74h-2.87a1.435 1.435 0 0 1-1.435-1.435v-2.87Zm-5.74 12.914v-1.435h5.023v-2.152H6.457V11.42h1.435V9.985H6.457V8.55h2.869v1.435h1.435v1.435H9.326v1.435h1.435v1.434H9.326v.718h5.022v1.435H2.87Zm8.733-10.044L10.044 4.84v1.558h1.558Z" clip-rule="evenodd"></path></g><defs><filter id="zip_svg__a" width="21.523" height="21.523" x="-2.152" y="-0.776" color-interpolation-filters="sRGB" filterUnits="userSpaceOnUse"><feFlood flood-opacity="0" result="BackgroundImageFix"></feFlood><feColorMatrix in="SourceAlpha" result="hardAlpha" values="0 0 0 0 0 0 0 0 0 0 0 0 0 0 0 0 0 0 127 0"></feColorMatrix><feOffset dy="0.717"></feOffset><feGaussianBlur stdDeviation="0.717"></feGaussianBlur><feColorMatrix values="0 0 0 0 0 0 0 0 0 0 0 0 0 0 0 0 0 0 0.06 0"></feColorMatrix><feBlend in2="BackgroundImageFix" result="effect1_dropShadow_2275_89125"></feBlend><feColorMatrix in="SourceAlpha" result="hardAlpha" values="0 0 0 0 0 0 0 0 0 0 0 0 0 0 0 0 0 0 127 0"></feColorMatrix><feOffset dy="0.717"></feOffset><feGaussianBlur stdDeviation="1.076"></feGaussianBlur><feColorMatrix values="0 0 0 0 0 0 0 0 0 0 0 0 0 0 0 0 0 0 0.1 0"></feColorMatrix><feBlend in2="effect1_dropShadow_2275_89125" result="effect2_dropShadow_2275_89125"></feBlend><feBlend in="SourceGraphic" in2="effect2_dropShadow_2275_89125" result="shape"></feBlend></filter></defs></svg>