<svg xmlns="http://www.w3.org/2000/svg" width="24" height="24" fill="none"><path fill="#000" fill-opacity="0.57" fill-rule="evenodd" d="M13.758 10.913c-.19-1.36-.735-2.756-1.666-4.245a5.417 5.417 0 0 0-.184 0c-.931 1.49-1.476 2.886-1.665 4.245a22.243 22.243 0 0 1-1.323-.17c.172-1.252.6-2.497 1.267-3.76a5.347 5.347 0 0 0-3.263 3.375 53.823 53.823 0 0 1-1.301-.306 6.674 6.674 0 0 1 7.226-4.665 6.674 6.674 0 0 1 5.528 4.665 53.72 53.72 0 0 1-1.301.306 5.348 5.348 0 0 0-3.263-3.375c.667 1.263 1.095 2.508 1.267 3.76a22.25 22.25 0 0 1-1.322.17ZM12 12.333c2.028 0 4.04-.33 6.636-.972a6.745 6.745 0 0 1-.005 1.335 6.67 6.67 0 0 1-10.145 4.97 6.701 6.701 0 0 1-2.153-2.152 6.626 6.626 0 0 1-1-3.514c0-.215.01-.428.03-.639 2.597.641 4.608.973 6.637.973Zm1.813 4.685a5.342 5.342 0 0 0 3.422-3.996c-.768.168-1.489.304-2.18.407-.187 1.194-.605 2.383-1.242 3.589Zm-1.721.315c.816-1.306 1.336-2.54 1.579-3.74a19.227 19.227 0 0 1-3.342 0c.243 1.2.763 2.434 1.579 3.74a5.624 5.624 0 0 0 .184 0Zm-1.904-.315c-.638-1.206-1.056-2.395-1.243-3.59a32.774 32.774 0 0 1-2.18-.406c.124.646.366 1.249.7 1.788a5.368 5.368 0 0 0 2.723 2.208Z" clip-rule="evenodd"></path></svg>