<svg xmlns="http://www.w3.org/2000/svg" width="24" height="25" fill="none"><path fill="#000" fill-opacity="0.57" fill-rule="evenodd" d="m11.175 7.1.058-.118h1.534l.058.118c.139.274.326.598.567.899.233.292.573.635 1.037.855.678.32 1.46.294 1.91.253l.716 1.145-.012.018c-.264.412-.71 1.195-.71 2.046 0 .85.447 1.633.71 2.045l.012.018-.716 1.146c-.45-.042-1.232-.069-1.91.252-.464.22-.804.563-1.037.855a5.23 5.23 0 0 0-.625 1.017h-1.534a5.232 5.232 0 0 0-.625-1.017c-.233-.292-.573-.635-1.037-.855-.678-.32-1.46-.294-1.91-.252l-.716-1.146.012-.018c.263-.412.71-1.195.71-2.045 0-.85-.447-1.634-.71-2.046l-.012-.018.716-1.145c.45.041 1.232.068 1.91-.253.464-.22.804-.563 1.037-.855.24-.301.428-.625.567-.9ZM15 7.649c-.848-.402-1.333-2-1.333-2h-3.334s-.485 1.598-1.333 2c-.706.334-2 0-2 0l-1.667 2.667s1 1.126 1 2c0 .873-1 2-1 2L7 16.982s1.294-.334 2 0c.848.402 1.333 2 1.333 2h3.334s.485-1.598 1.333-2c.706-.334 2 0 2 0l1.667-2.666s-1-1.127-1-2c0-.874 1-2 1-2L17 7.649s-1.294.334-2 0Zm-1.667 4.667a1.333 1.333 0 1 1-2.666 0 1.333 1.333 0 0 1 2.666 0Zm1.334 0a2.667 2.667 0 1 1-5.334 0 2.667 2.667 0 0 1 5.334 0Z" clip-rule="evenodd"></path></svg>