<svg xmlns="http://www.w3.org/2000/svg" width="16" height="17" fill="none" class="ml-2"><path fill="#00A05E" fill-rule="evenodd" d="M13.333 3.167c-2.666 0-3.333 0-5.333-1.334-2 1.334-2.667 1.334-5.333 1.334V4.5H4v-.009c.687-.016 1.295-.061 1.873-.19.744-.165 1.398-.455 2.127-.889.729.434 1.383.724 2.127.89.578.128 1.186.173 1.873.19v5.34c0 .947-.799 1.931-2.089 2.818A12.537 12.537 0 0 1 8 13.72a12.538 12.538 0 0 1-1.911-1.068C4.799 11.763 4 10.78 4 9.832V5.834H2.667v4C2.667 13.166 8 15.166 8 15.166s5.333-2 5.333-5.334V3.167Zm-6 7.61 3.138-3.139-.942-.943-2.196 2.196-.862-.862-.942.942 1.804 1.805Z" clip-rule="evenodd"></path></svg>