<svg width="384" height="122" fill="none" xmlns="http://www.w3.org/2000/svg"><g filter="url(#collab_svg__a)"><path fill="#fff" d="M23.5 18h73v84h-73z"></path><path d="m13.37 10.32-.013.002h-.012c-2.67.232-4.734 1.26-6.088 2.997C5.944 15.004 5.5 17.1 5.5 19.114v60.66c0 3.32 1.226 6.066 3.7 9.366l.007.01.008.01 13.007 16.913.006.008.006.008c1.217 1.551 2.52 2.665 4.237 3.294 1.65.603 3.483.682 5.591.582l.013-.001h.013l64.257-3.89.01-.001.011-.001c2.971-.211 5.332-1.037 6.893-2.812 1.543-1.756 1.955-4.052 1.955-6.376V28.641c0-1.433-.303-2.626-1.199-3.74-.706-.88-1.756-1.65-2.881-2.474l-.18-.131-.015-.011-.016-.011L82.831 9.518c-2.187-1.59-3.959-2.66-6.183-3.166-2.158-.49-4.58-.408-7.969-.117l-.072.006-55.237 4.08Zm65.174 7.5 6.343 4.597-50.907 3.065h-.015l-.68.047c-2.73.183-4.044.257-5.07.073-.847-.153-1.578-.503-2.95-1.62l-.009-.006-.008-.007-5.68-4.518 51.755-3.782.014-.001.014-.001c1.959-.171 3.355.09 4.412.487 1.073.403 1.901.984 2.725 1.625l.028.021.028.02Zm-60.939 1.855Zm76.012 13.103.031-.002.032-.003c.317-.029.477.011.536.032a.155.155 0 0 1 .083.058c.088.11.308.532.308 1.611v57.547c0 1.27-.126 1.917-.339 2.266-.088.145-.34.528-1.654.6h-.006l-60.371 3.5h-.003c-1.6.088-2.236-.181-2.473-.37-.145-.115-.457-.453-.457-1.716v-2h-.001V38.368c0-1.14.192-1.508.266-1.605h.001c.013-.019.153-.22.98-.293l63.067-3.692Zm-4.761 8.264-.368-1.664-1.701.1-13.4.78-.04.003-.039.004c-2.86.28-5.517 2.716-4.876 6.238l.266 1.46 1.474.17 3.275.375v18.325L57.322 42.135l-.64-.98-1.17.078-14.366.967h-.01c-2.036.147-3.526 1.208-4.38 2.607-.809 1.327-1.033 2.927-.728 4.296l.32 1.44 1.47.119 3.015.244V85.84l-2.032.564-.007.002-.006.002c-1.534.437-2.335 1.693-2.676 2.677a5.017 5.017 0 0 0-.276 1.576c-.005.489.068 1.101.354 1.675l.59 1.178 1.315-.076 13.335-.774c2.942-.015 4.801-1.124 5.832-2.61a5.504 5.504 0 0 0 .945-2.542 4.162 4.162 0 0 0 .018-.293v-.03l.001-.013V87.167c0-.001 0-.003-2-.003h2v-1.598l-1.558-.352-4.462-1.01V63.708l15.342 24.138.058.091.067.084.143.18c1.034 1.295 1.974 2.474 3.09 3.25 1.33.926 2.757 1.21 4.54 1.21 2.425 0 5.096-.951 7.745-2.377l1.052-.566V47.394l1.23-.244c1.608-.216 2.709-1.215 3.218-2.514.464-1.183.407-2.497.165-3.594Z" fill="#000" stroke="#fff" strokeWidth="4"></path></g><g filter="url(#collab_svg__b)"><circle cx="323.5" cy="60" r="57" fill="#fff"></circle><g clip-path="url(#collab_svg__c)" fill="#000"><path d="M337.297 16.009c4.246-.109 8.493.762 12.413 2.504a49.72 49.72 0 0 0-9.364-4.573c-16.334-5.989-34.736-2.94-48.129 8.058-.436.326-1.525 1.306-1.96 1.742-.436.436-1.416 1.307-1.851 1.742-.545.545-1.198 1.307-1.743 1.851-.435.545-1.306 1.525-1.633 1.96-.436.654-.98 1.307-1.307 1.852-.326.435-1.089 1.633-1.524 2.177-.109.218-.545.871-.653 1.09-.109.108-.436.761-.545.87-.218.327-.98 1.743-1.198 2.07-.217.544-.871 1.741-1.089 2.286-.217.544-.653 1.415-.871 1.96-.109.218-.653 1.742-.762 1.96-.218.435-.435 1.198-.544 1.633-.327.871-.545 1.96-.871 2.94-.109.545-.436 1.96-.545 2.505l-.109.435c-2.178 11.434 0 23.52 5.88 33.647.654.98 1.416 2.286 2.069 3.266.327.436.762 1.09 1.089 1.416l1.089 1.416c.327.435 1.307 1.524 1.633 1.96.545.544 1.198 1.306 1.742 1.85l1.198 1.198.654.545.108.109.218.109.327.218c.435.326.98.653 1.415.98l.327.217c.109.11.218.11.327.218.435.218 1.089.653 1.415.871.218.11.545.327.763.436.217.109.871.435 1.197.544.327.218.871.327 1.198.545l2.613.98c.436.109.98.326 1.416.435.327.109.98.218 1.307.327.326.109.871.109 1.306.218a30.91 30.91 0 0 0 4.465.326c3.593-.109 7.186-.871 10.453-2.286 6.969-2.94 12.74-8.82 15.462-16.007l.327-.762c.109-.218.327-.98.436-1.198.217-.653.435-1.416.544-2.069 0-.218.109-.653.218-.871.218-1.198.435-2.613.435-3.811v-1.525c-.98 0-1.851-.109-2.831-.217-14.918-1.525-26.242-14.483-25.806-29.618.326-16.007 13.611-28.638 29.291-28.529Zm-37.24 76.222c-1.851-1.089-3.703-2.395-5.227-3.92-6.751-6.533-11.324-15.244-12.849-24.609-2.831-16.55 4.029-33.538 17.64-43.446 7.622-5.554 17.205-8.603 26.678-8.276-11.216.544-22.213 5.227-30.162 13.285-9.909 9.908-14.591 24.282-12.305 38.11 1.525 9.583 6.316 18.73 13.502 25.263 7.405 6.533 18.512 8.058 27.44 3.811-7.513 4.356-17.204 4.138-24.717-.218Zm1.415-11.869c-17.531-17.53-14.373-47.257 6.534-60.76a41.207 41.207 0 0 1 8.82-4.246c4.9-1.634 10.126-2.287 15.244-1.851-10.236-.11-20.362 3.81-27.658 10.78-15.353 14.373-16.442 38.546-2.395 54.335.326.327.871.98 1.306 1.416 6.643 6.86 17.64 8.82 26.025 4.028-8.711 5.88-20.798 3.812-27.876-3.702Zm4.791-12.957.871 1.306.98 1.307 1.089 1.306c1.089 1.198 2.178 2.396 3.485 3.376 5.118 4.029 12.304 5.662 18.62 3.484-4.138 1.852-8.929 1.96-13.285.654-3.92-1.198-7.295-3.485-9.909-6.425a33.513 33.513 0 0 1-8.928-19.926c-2.178-21.778 16.66-40.29 38.437-37.023-5.009-.217-10.017.436-14.591 2.178-1.198.436-2.613 1.09-3.702 1.742l-1.089.545c-.218.109-.871.544-1.089.653-.435.218-.98.654-1.415.871-.436.327-.98.654-1.307.98-14.156 10.345-17.749 30.163-8.167 44.971Z"></path><path d="M353.739 97.893c.435-.326 1.524-1.306 1.96-1.742.435-.436 1.415-1.307 1.851-1.742.544-.545 1.198-1.307 1.742-1.851.436-.545 1.307-1.525 1.633-1.96.436-.545.98-1.198 1.307-1.743.327-.435 1.089-1.633 1.524-2.177.109-.218.545-.871.654-1.09.109-.108.435-.761.544-.87.218-.327.98-1.743 1.198-2.07.218-.544.871-1.742 1.089-2.286.218-.544.653-1.415.871-1.96.109-.218.653-1.742.762-1.96.218-.435.436-1.198.545-1.633.326-.871.544-1.96.871-2.94.109-.545.435-1.96.544-2.505l.109-.435c2.178-11.434 0-23.52-5.88-33.647-.653-.98-1.415-2.287-2.069-3.267-.218-.435-.762-.98-.98-1.415l-1.089-1.416c-.326-.435-1.306-1.524-1.633-1.96-.544-.544-1.198-1.306-1.742-1.85l-1.198-1.199-.653-.544-.109-.109-.218-.109-.544-.326c-.436-.327-.98-.654-1.416-.98l-.327-.218c-.109-.11-.217-.11-.326-.218-.436-.218-1.089-.653-1.416-.871-.218-.109-.544-.327-.762-.436-.218-.109-.871-.435-1.198-.544-.327-.218-.871-.327-1.198-.545l-2.613-.98c-.436-.109-.98-.326-1.416-.435-.326-.109-.98-.218-1.306-.327-.327-.109-.871-.109-1.307-.218a30.798 30.798 0 0 0-4.464-.326c-3.594.109-7.187.87-10.454 2.286-6.969 2.94-12.74 8.82-15.462 16.007l-.327.762c-.108.218-.326.98-.435 1.198-.218.653-.436 1.416-.545 2.069 0 .218-.108.653-.217.871-.218 1.198-.436 2.613-.436 3.811v1.634c16.116.108 28.965 13.61 28.529 29.726-.436 16.007-13.611 28.529-29.291 28.529-4.247.109-8.493-.762-12.413-2.504a49.707 49.707 0 0 0 9.364 4.573c16.551 5.989 34.844 2.94 48.347-8.058Zm-7.84-70.124c1.851 1.089 3.702 2.395 5.226 3.92 6.751 6.533 11.325 15.244 12.849 24.609 2.831 16.55-4.138 33.646-17.749 43.446-7.622 5.554-17.204 8.603-26.677 8.276 11.324-.436 22.322-5.118 30.162-13.176 10.018-9.909 14.591-24.282 12.304-38.22-1.524-9.582-6.315-18.729-13.502-25.262-7.404-6.533-18.511-8.058-27.44-3.811 7.622-4.356 17.313-4.138 24.827.218Zm-1.416 11.869c17.531 17.53 14.373 47.257-6.533 60.76a41.224 41.224 0 0 1-8.82 4.246c-4.9 1.634-10.127 2.287-15.245 1.851 10.236.109 20.363-3.811 27.658-10.78 15.462-14.482 16.442-38.655 2.505-54.335-.327-.327-.872-.98-1.307-1.416-6.642-6.86-17.64-8.82-26.025-4.029 8.603-5.88 20.689-3.81 27.767 3.703Zm-21.342 62.937c1.198-.435 2.613-1.088 3.702-1.742l1.089-.544c.218-.109.871-.545 1.089-.654.435-.217.98-.653 1.415-.87.436-.327.98-.654 1.307-.98 14.047-10.563 17.531-30.38 8.058-45.19l-.98-1.306-.98-1.307-1.089-1.307c-1.089-1.197-2.178-2.395-3.484-3.375-5.118-4.029-12.305-5.662-18.62-3.485 4.137-1.85 8.928-1.96 13.284-.653 3.92 1.198 7.296 3.485 9.909 6.425a33.515 33.515 0 0 1 8.929 19.926c2.178 21.778-16.66 40.289-38.438 37.022 5.118.545 10.127-.217 14.809-1.96Z"></path><path d="M310.51 45.845c-.327 0-.653-.11-.98-.11v.11c.762 0 1.524.109 2.287.218-.436-.11-.871-.11-1.307-.218Z"></path></g></g><path fill-rule="evenodd" clip-rule="evenodd" d="m184.436 60-11.468-11.468 3.064-3.064L187.5 56.936l11.468-11.468 3.064 3.064L190.564 60l11.468 11.468-3.064 3.064L187.5 63.065l-11.468 11.467-3.064-3.064L184.436 60Z" fill="#000" fill-opacity="0.34"></path><defs><filter id="collab_svg__a" x="0.5" y="2" width="109.714" height="114.002" filterUnits="userSpaceOnUse" color-interpolation-filters="sRGB"><feFlood flood-opacity="0" result="BackgroundImageFix"></feFlood><feColorMatrix in="SourceAlpha" values="0 0 0 0 0 0 0 0 0 0 0 0 0 0 0 0 0 0 127 0" result="hardAlpha"></feColorMatrix><feOffset dy="1"></feOffset><feGaussianBlur stdDeviation="1"></feGaussianBlur><feColorMatrix values="0 0 0 0 0 0 0 0 0 0 0 0 0 0 0 0 0 0 0.06 0"></feColorMatrix><feBlend in2="BackgroundImageFix" result="effect1_dropShadow_5629_22334"></feBlend><feColorMatrix in="SourceAlpha" values="0 0 0 0 0 0 0 0 0 0 0 0 0 0 0 0 0 0 127 0" result="hardAlpha"></feColorMatrix><feOffset dy="1"></feOffset><feGaussianBlur stdDeviation="1.5"></feGaussianBlur><feColorMatrix values="0 0 0 0 0 0 0 0 0 0 0 0 0 0 0 0 0 0 0.1 0"></feColorMatrix><feBlend in2="effect1_dropShadow_5629_22334" result="effect2_dropShadow_5629_22334"></feBlend><feBlend in="SourceGraphic" in2="effect2_dropShadow_5629_22334" result="shape"></feBlend></filter><filter id="collab_svg__b" x="263.147" y="0.765" width="120.706" height="120.706" filterUnits="userSpaceOnUse" color-interpolation-filters="sRGB"><feFlood flood-opacity="0" result="BackgroundImageFix"></feFlood><feColorMatrix in="SourceAlpha" values="0 0 0 0 0 0 0 0 0 0 0 0 0 0 0 0 0 0 127 0" result="hardAlpha"></feColorMatrix><feOffset dy="1.118"></feOffset><feGaussianBlur stdDeviation="1.118"></feGaussianBlur><feColorMatrix values="0 0 0 0 0 0 0 0 0 0 0 0 0 0 0 0 0 0 0.06 0"></feColorMatrix><feBlend in2="BackgroundImageFix" result="effect1_dropShadow_5629_22334"></feBlend><feColorMatrix in="SourceAlpha" values="0 0 0 0 0 0 0 0 0 0 0 0 0 0 0 0 0 0 127 0" result="hardAlpha"></feColorMatrix><feOffset dy="1.118"></feOffset><feGaussianBlur stdDeviation="1.676"></feGaussianBlur><feColorMatrix values="0 0 0 0 0 0 0 0 0 0 0 0 0 0 0 0 0 0 0.1 0"></feColorMatrix><feBlend in2="effect1_dropShadow_5629_22334" result="effect2_dropShadow_5629_22334"></feBlend><feBlend in="SourceGraphic" in2="effect2_dropShadow_5629_22334" result="shape"></feBlend></filter><clipPath id="collab_svg__c"><path fill="#fff" transform="translate(274.25 11)" d="M0 0h98v98H0z"></path></clipPath></defs></svg>