<svg xmlns="http://www.w3.org/2000/svg" width="14" height="14" fill="none" class="scale-[1.75]"><path fill="#AF5883" fill-rule="evenodd" d="M6.417 1.196a5.903 5.903 0 0 1 1.166 0c.705.07 1.373.265 1.981.563l.007.003a5.823 5.823 0 0 1 .985.614 5.865 5.865 0 0 1 1.726 2.146 5.834 5.834 0 0 1-5.866 8.283V1.196Zm-1.167.238a5.836 5.836 0 0 0 0 11.132v-1.239a4.668 4.668 0 0 1 0-8.654v-1.24ZM11.667 7a4.668 4.668 0 0 1-3.562 4.535l3.41-5.724c.099.38.152.778.152 1.19ZM9.982 3.41c.373.31.696.677.957 1.087L7.583 10.13V7.734l2.4-4.324ZM7.583 2.37v2.96l1.414-2.55a4.626 4.626 0 0 0-1.414-.41Z" clip-rule="evenodd"></path></svg>