<svg xmlns="http://www.w3.org/2000/svg" width="14" height="14" fill="none" class="scale-[1.75]"><path fill="#0B79AF" fill-rule="evenodd" d="M7.626 1.604H6.471v.993c-.714.08-1.325.337-1.767.745-.471.435-.741 1.034-.741 1.745 0 .638.224 1.18.652 1.6.424.417 1.04.703 1.81.853l.046.01v2.605c-.799-.213-1.335-.844-1.365-1.713l-.005-.152-1.408.103.001.137c.012 1.541 1.155 2.646 2.777 2.858v1.125h1.155V11.39c1.575-.174 2.683-1.144 2.683-2.524 0-.678-.223-1.229-.68-1.65-.45-.417-1.116-.696-1.981-.862l-.022-.003V3.889c.6.241.997.811 1.027 1.577l.006.149 1.422-.088-.005-.142c-.048-1.435-1.04-2.495-2.45-2.755V1.604ZM5.398 5.005c0-.595.415-1.05 1.073-1.192v2.315c-.334-.09-.593-.225-.77-.397a.965.965 0 0 1-.303-.726Zm2.228 5.17V7.772c.435.11.738.245.935.417.21.183.313.417.313.749 0 .614-.465 1.08-1.248 1.239Z" clip-rule="evenodd"></path></svg>