<svg class="  duration-200 ease-out" width="300" height="202" viewBox="0 0 300 202" fill="none" xmlns="http://www.w3.org/2000/svg"><path d="M279.165 101L151.547 101C140.502 101 131.547 92.0457 131.547 81V21C131.547 9.95431 122.593 1 111.547 1H0" stroke="rgba(0,149,194,.4)" stroke-width="1.5" opacity="1" pathLength="1" stroke-dashoffset="0px" stroke-dasharray="1px 1px"></path><path d="M279.165 101L151.547 101C140.502 101 131.547 109.954 131.547 121V181C131.547 192.046 122.593 201 111.547 201H0" stroke="rgba(0,149,194,.4)" stroke-width="1.5" opacity="1" pathLength="1" stroke-dashoffset="0px" stroke-dasharray="1px 1px"></path><path d="M279.157 101L151.547 101C140.502 101 131.547 92.0453 131.547 80.9996V72.0005C131.547 60.9548 122.593 52.0005 111.547 52.0005H0" stroke="rgba(0,149,194,.4)" stroke-width="1.5" opacity="1" pathLength="1" stroke-dashoffset="0px" stroke-dasharray="1px 1px"></path><path d="M0 101H279.165" stroke="rgba(0,149,194,.4)" stroke-width="1.5" opacity="1" pathLength="1" stroke-dashoffset="0px" stroke-dasharray="1px 1px"></path><path d="M279.148 101L151.547 101C140.502 101 131.547 109.955 131.547 121V129.999C131.547 141.045 122.593 149.999 111.547 149.999H0" stroke="rgba(0,149,194,.4)" stroke-width="1.5" opacity="1" pathLength="1" stroke-dashoffset="0px" stroke-dasharray="1px 1px"></path><path d="M246.219 132.002C245.926 132.295 245.926 132.77 246.219 133.063L250.992 137.836C251.285 138.129 251.759 138.129 252.052 137.836C252.345 137.543 252.345 137.068 252.052 136.775L247.81 132.533L252.052 128.29C252.345 127.997 252.345 127.522 252.052 127.229C251.759 126.936 251.285 126.936 250.992 127.229L246.219 132.002ZM286.71 100.294H278.404V101.794H286.71V100.294ZM246.749 133.283H286.71V131.783H246.749V133.283ZM299.46 120.533V113.044H297.96V120.533H299.46ZM286.71 133.283C293.751 133.283 299.46 127.574 299.46 120.533H297.96C297.96 126.746 292.923 131.783 286.71 131.783V133.283ZM286.71 101.794C292.923 101.794 297.96 106.831 297.96 113.044H299.46C299.46 106.003 293.751 100.294 286.71 100.294V101.794Z" fill="rgba(0,149,194,1)" stroke="#fafaf9" stroke-width="1.5" fill-opacity="1" pathLength="1" stroke-dashoffset="-1px" stroke-dasharray="1px 1px" opacity="1"></path></svg>