<svg xmlns="http://www.w3.org/2000/svg" width="56" height="64" fill="none" ><path fill="rgb(74,222,128)" stroke="#149F66" strokeWidth="0.793" d="m32.217 3.136 19.54 11.282a7.534 7.534 0 0 1 3.767 6.524v22.563a7.534 7.534 0 0 1-3.766 6.524l-19.54 11.282a7.534 7.534 0 0 1-7.534 0L5.144 50.03a7.533 7.533 0 0 1-3.767-6.524V20.942a7.534 7.534 0 0 1 3.767-6.524l19.54-11.282a7.534 7.534 0 0 1 7.533 0Z"></path><path stroke="#fff" strokeWidth="0.75" d="M2.702 17.385 29 32m-.456.197 25.655-14.813M28.826 32.051v30.018"></path></svg>